<?xml version="1.0" encoding="utf-8"?>
<!-- Generator: Adobe Illustrator 22.0.1, SVG Export Plug-In . SVG Version: 6.00 Build 0)  -->
<svg version="1.1" id="svg2" xmlns="http://www.w3.org/2000/svg" xmlns:xlink="http://www.w3.org/1999/xlink" x="0px" y="0px"
	 viewBox="0 0 725.4 587.6" style="enable-background:new 0 0 725.4 587.6;" xml:space="preserve">
<style type="text/css">
	.st0{fill:#E3781C;}
	.st1{fill:#FFFFFF;}
</style>
<g id="g3096" transform="matrix(2.0905593,0,0,2.0905593,-291.44183,-499.95836)">
	<g id="XMLID_1_">
		<g>
			<path class="st0" d="M485.9,328.7c0.7,4.3-0.3,11.5-1.9,13.9c-1,1.4-1.5,1.7-7.3,3.4c-7.5,2.3-10.7,4.4-12.6,8.2
				c-0.8,1.6-0.9,2.1-0.9,6.6v4.2c-0.3-1.6-0.5-3.1-0.5-4.6c0-4.2,1.4-7.7,4.2-10.2c1.5-1.3,6.3-3.4,11-4.8c2.8-0.8,4.8-1.6,5.3-2.1
				c0.4-0.4,1.1-1.9,1.6-3.3c0.5-1.7,0.7-2.8,0.8-5.1c0.1-1,0.2-2,0.2-2.7c0-0.8-0.1-1.7-0.2-2.7c-0.2-4-0.9-5.1-3.1-6.1
				c-1-0.4-4-1.4-6.6-2.2c-7.6-2.3-9.9-3.8-11.7-7.7c-0.7-1.6-0.9-2.6-1-5.6c-0.1-3.9,0.1-5.1,2.1-10.8c1.2-3.3,1.2-5,0-6.4
				c-2.8-3.3-12.1-8.7-15-8.7c-0.5,0-1.1,0.1-1.6,0.2c-0.3,0.1-0.6,0.2-0.8,0.3c-0.1,0-0.1,0.1-0.2,0.2l0,0c1.6-1.3,2.7-1.2,5.1-0.4
				c4.2,1.5,11.5,6.4,13.1,8.8c1,1.5,0.9,2.6-1.1,8.2c-1.4,3.9-1.5,4.4-1.5,7.9c0,3,0.2,4.1,0.8,5.6c1.7,4.3,4.2,5.9,12.3,8.4
				C484.6,323.7,485.1,324.1,485.9,328.7z"/>
			<path class="st0" d="M485.8,332.2c0,0.8-0.1,1.7-0.2,2.7c0-0.7,0-1.5,0-2.4c0-1.2,0-2.2-0.1-3
				C485.8,330.5,485.8,331.4,485.8,332.2z"/>
			<path class="st0" d="M485.6,326.1c1.9,5.9,0.3,16.7-2.8,18.3c-0.5,0.3-2.9,1.1-5.3,1.8c-7.6,2.3-11,4.3-12.9,8
				c-0.9,1.7-0.9,2-0.9,6.7v4.9l1.5,3.6c1.9,4.7,2,5.9,0.1,7.9c-1.8,2-6.9,5.6-10,7c-2.9,1.4-4.9,1.9-6.2,1.5
				c-1.4-0.4-3.2-1.9-4.9-4.1c-4.4-5.9-7.5-7.9-12.3-7.9c-4.7,0-6.6,1.4-14.2,9.7c-2.1,2.3-2.2,2.4-3.9,2.4c-2.8,0-9-3.4-13.6-7.4
				c-3.7-3.2-4-4.5-2-8.9c2.6-5.9,3.1-8.4,2.1-12.2c-0.7-2.8-1.7-4.6-3.8-6.8c-3.1-3.3-5.9-4.5-11.3-5c-4.4-0.4-5.2-0.8-6-3.5
				c-0.9-3-0.9-15.3,0-17.6c0.8-2.1,1.3-2.5,3.5-2.8c7.2-1,10-2.1,13.3-5.2c3.1-2.9,4.5-5.6,4.7-9.3c0.2-3-0.1-4.4-2-9.8
				c-1.5-4.3-1.4-5.6,0.9-8c2.3-2.4,6.4-5.4,9.5-7c4.6-2.4,6.6-1.7,10.5,3.2c5,6.3,7.1,7.6,12.1,7.6c4.9,0,7-1.3,12.1-7.3
				c3.1-3.7,4.5-4.7,6.3-4.7c2.7,0,11.6,5.1,14.9,8.5c2.2,2.3,2.2,3,0.3,8.9c-0.9,2.7-1.7,5.9-1.8,7.1c-0.4,4.3,1.1,8.7,3.7,11
				c1.9,1.8,2.7,2.1,8.7,3.9c2.9,0.9,6.1,2,7.2,2.6C484.8,324.1,485,324.3,485.6,326.1z M484,342.6c1.6-2.4,2.6-9.6,1.9-13.9
				c-0.8-4.6-1.3-5-9.5-7.5c-8.2-2.5-10.6-4.1-12.3-8.4c-0.6-1.6-0.8-2.7-0.8-5.6c0-3.4,0.1-4,1.5-7.9c2-5.6,2.1-6.7,1.1-8.2
				c-1.6-2.4-8.9-7.3-13.1-8.8c-2.4-0.9-3.5-1-5.1,0.4c-0.6,0.5-1.3,1.2-2.1,2.2c-6.9,7.8-8.6,8.8-13.9,8.8c-2.8,0-3.6-0.1-4.9-0.8
				c-2.4-1.3-4-2.7-6-5.2c-4.7-6.1-6.2-6.9-10.1-5.4c-3.3,1.2-10.6,6.7-12,8.9c-1,1.5-0.7,3.8,0.9,7.9c1.6,4.1,2,8.5,1,11.5
				c-1.3,3.9-5.7,8.3-9.9,9.8c-1.9,0.7-4.5,1.2-7.8,1.6c-1.8,0.2-3,1.1-3.6,2.9c-0.3,0.8-0.4,3.2-0.5,5.9c0,0,0,0.1,0,0.1
				c-0.1,1.8,0,3.8,0.1,5.6c0,0,0,0.1,0,0.1c0.1,2.4,0.3,4.4,0.6,5.3c0.8,2.7,1.5,3.1,5.8,3.4c1.6,0.1,3.3,0.4,4.1,0.5c0,0,0,0,0,0
				c0.2,0.1,0.4,0.1,0.6,0.2c0,0,0,0,0,0c6,2,10.5,7.6,11,13.8c0,0,0,0,0,0c0,0.6,0,1.1,0,1.7c0,0.4,0,0.7,0,1c0,0,0,0,0,0
				c-0.3,1.7-1,3.7-2.5,7c-0.8,1.7-1.3,3.4-1.3,4.2c0,1.2,0.2,1.6,2.1,3.4c2.4,2.4,8.4,6.4,11.2,7.5c1.1,0.4,2.6,0.8,3.3,0.8
				c1.2,0,1.6-0.2,3.3-2c1.1-1.1,3.2-3.4,4.8-5c3.2-3.3,5-4.4,8.3-4.9c0.3,0,0.5-0.1,0.8-0.1c0.3,0,0.6,0,0.9,0c0.6,0,1.1,0,1.5,0
				c3.4,0.4,6.6,2.5,9.9,6.6c3.7,4.6,4.7,5.4,6.8,5.4c3,0,9.7-3.7,14-7.8c2.7-2.6,2.8-3.2,0.7-8.3l-1-2.5c-0.2-0.6-0.3-1.2-0.5-1.9
				v-4.2c0-4.5,0.1-5,0.9-6.6c1.9-3.8,5.1-5.9,12.6-8.2C482.5,344.3,483,344.1,484,342.6z"/>
			<path class="st0" d="M485.7,332.6c0,0.9,0,1.7,0,2.4c-0.3,2.6-1,5.5-1.7,6.9c-0.9,1.8-1.2,2-6.7,3.7c-11.1,3.3-14.5,6.8-14.5,15
				c0,4,0.5,6.3,2.1,10.1c1.5,3.4,1.4,4.5-0.4,6.4c-1.8,1.9-6.9,5.5-10,6.9c-1.3,0.6-3.1,1.2-4,1.3c-2.2,0.2-3.3-0.6-6.2-4.4
				c-3.7-4.8-6.1-6.6-10.1-7.5c-0.3-0.1-0.5-0.1-0.8-0.1c2.2,0,2.7,0.2,4.5,1.2c2.2,1.2,4.1,3.1,7.5,7.4c2.1,2.6,3.6,3.6,5.1,3.4
				c3.1-0.5,10.6-4.9,13.7-8.1c1.9-2,2-3,0.3-7c-1.1-2.5-1.6-4.5-1.9-6.7v0c0-0.5,0-1.1-0.1-1.7c0-0.5,0-1,0-1.4c0-0.2,0-0.4,0-0.6
				c0.3-7.2,3.6-10.8,12.4-13.6c8-2.5,8-2.5,8.8-4c1.3-2.3,2-6.6,1.8-10.8c-0.2-4.7-0.8-6.2-2.6-7.2c-0.8-0.4-3.6-1.4-6.3-2.2
				c-6-1.8-8-2.7-9.8-4.2c-1.9-1.7-2.9-3.5-3.8-6.6c-0.2-0.8-0.4-1.6-0.5-2.3c0-0.5,0-1,0-1.6c0-0.6,0-1,0-1.5
				c0.2-1.8,0.8-3.9,1.7-6.8c0.9-2.6,1.6-5.2,1.6-5.9c0-1.6-1.7-3.2-6.3-6.3c-4.1-2.8-7-4.1-9.2-4.3l-1.4-0.1
				c1.1-0.4,2.3-0.2,4.1,0.6c4.8,2,11.4,6.5,12.6,8.7c0.8,1.4,0.6,2.4-1.2,7.6c-1.4,3.8-1.4,4.3-1.4,7.9c0,4.6,0.7,6.8,3,9.4
				c1.8,2.1,4.2,3.3,10.1,5c6,1.8,7.8,2.6,8.4,3.6c0.4,0.8,0.9,2.6,1.1,4.4C485.7,330.4,485.7,331.4,485.7,332.6z"/>
			<path class="st0" d="M485.7,335c-0.1,2.3-0.3,3.4-0.8,5.1c-0.4,1.4-1.2,2.9-1.6,3.3c-0.5,0.5-2.5,1.3-5.3,2.1
				c-4.8,1.4-9.5,3.5-11,4.8c-2.8,2.5-4.2,6-4.2,10.2h0c0-8.2,3.4-11.7,14.5-15c5.5-1.6,5.8-1.8,6.7-3.7
				C484.7,340.5,485.3,337.5,485.7,335z"/>
			<path class="st0" d="M485.6,329.5c-0.3-1.8-0.7-3.6-1.1-4.4c-0.5-1-2.4-1.8-8.4-3.6c-6-1.8-8.3-3-10.1-5c-2.3-2.6-3-4.9-3-9.4
				c0-3.6,0.1-4.1,1.4-7.9c1.9-5.2,2-6.2,1.2-7.6c-1.2-2.2-7.8-6.7-12.6-8.7c-1.8-0.7-2.9-1-4.1-0.6l-0.3,0l0,0
				c0.5-0.1,1.1-0.2,1.6-0.2c2.9,0,12.2,5.4,15,8.7c1.2,1.5,1.3,3.1,0,6.4c-2,5.6-2.3,6.9-2.1,10.8c0.1,3,0.3,4,1,5.6
				c1.8,3.9,4.1,5.4,11.7,7.7c2.7,0.8,5.6,1.8,6.6,2.2C484.7,324.4,485.4,325.6,485.6,329.5z"/>
			<path class="st0" d="M485.4,331.3c0.2,4.1-0.5,8.5-1.8,10.8c-0.8,1.5-0.8,1.5-8.8,4c-8.7,2.8-12,6.4-12.4,13.6c0,0.2,0,0.4,0,0.6
				c-0.1-3.2,0-3.9,0.7-5.6c0.5-1.4,1.3-2.6,2.6-3.9c2.6-2.6,4.8-3.6,14.5-6.6c2.5-0.8,3-1.2,3.9-4c0.5-1.6,0.7-2.5,0.8-5
				c0.2-1.9,0.2-3.6,0-5.4c-0.1-5.1-1.1-5.5-7.3-7.4c-5.8-1.7-6.7-2-8.3-2.8c-2.5-1.3-4.3-3.1-5.6-5.7c-0.9-1.9-1.1-2.4-1.1-5.1
				c0.1,0.8,0.2,1.5,0.5,2.3c0.8,3.1,1.8,4.9,3.8,6.6c1.7,1.5,3.8,2.4,9.8,4.2c2.7,0.8,5.5,1.8,6.3,2.2
				C484.6,325.1,485.2,326.6,485.4,331.3z"/>
			<path class="st0" d="M485,329.8c0.2,1.7,0.2,3.5,0,5.4c0-0.8,0-1.6,0-2.7C485,331.4,485,330.5,485,329.8z"/>
			<path class="st0" d="M485,329.8c0,0.8,0,1.6,0,2.6c0,1.1,0,2,0,2.7c-0.1,0.7-0.2,1.5-0.4,2.3c-0.6,3.1-1.6,5.3-2.5,5.8
				c-0.3,0.2-2.6,0.9-5,1.6c-8.1,2.4-11.9,4.8-13.9,8.9c-0.9,1.9-1,2.2-1,7.3v5.3l1.5,3.6c0.8,2,1.5,4.1,1.5,4.6
				c0,2.5-11.3,10.2-15.1,10.2c-1.7,0-2.6-0.8-5.4-4.4c-4-5.1-6.5-6.9-10.8-7.6c-1.9-0.3-2.7-0.3-4.8,0.2c-3.4,0.8-5.7,2.4-9.3,6.5
				c-5.4,6-5.6,6.1-9.5,4.3c-2.9-1.4-8.1-5-10.3-7.1c-2.1-2-2.1-2.8-0.4-6.5c2-4.4,2.6-6.3,2.6-8.8c0-6.2-3.8-12.3-9.3-15.1
				c-2.4-1.2-4.5-1.7-8.3-2c-1.5-0.1-3-0.4-3.2-0.5c-0.9-0.8-1.4-4.4-1.4-10.9c0-5.8,0.1-6.6,0.7-7.9c0.6-1.2,0.9-1.4,2.3-1.6
				c4.2-0.6,6.3-1,7.7-1.5c4.9-1.7,9.2-6,11-10.7c1.2-3.3,0.7-8.6-1.5-13.4c-0.4-0.9-0.8-2.5-1-3.4l-0.2-1.8l1.9-1.9
				c2.1-2.1,6.7-5.6,8.9-6.7c3.8-1.9,5.4-1.4,9,3.2c4.4,5.5,6.3,6.9,10.6,7.8c2,0.4,2.7,0.4,4.8,0c1.3-0.3,3.1-0.8,3.9-1.2
				c1.5-0.8,4.6-3.8,8.4-8c2.3-2.6,2.3-2.6,3.9-2.6c1,0,2.5,0.5,3.9,1.2c2.7,1.3,7.9,4.7,9.8,6.4c1.3,1.2,1.3,1.3,1.2,3.3
				c-0.1,1.1-0.8,3.7-1.5,5.7c-2.7,7.6-1.8,14.4,2.6,18.3c1.7,1.5,3.3,2.4,6.3,3.3c1.2,0.4,3.9,1.2,5.9,1.9c5.2,1.6,5.5,1.9,6.2,4.7
				C484.7,328.4,484.9,329.1,485,329.8z M452,342c0-3.1-0.1-3.8-1-5.7c-1-2.2-4.2-5.7-5.3-5.7c-1.1,0-0.8-0.8,0.7-2.5
				c2.1-2.2,3-4.4,3.3-7.3c0.4-5.1-2.3-10.1-6.8-12.3c-2.3-1.2-4.3-1.7-8-2c-6.4-0.5-11.4,0.2-15.1,2.1c-3.3,1.7-6.6,5.9-7.8,10.1
				c-0.6,2-0.1,2.5,3.1,3.1c1.3,0.2,3.8,0.7,5.5,1c1.7,0.3,3.5,0.7,3.9,0.7c1.1,0.2,1.6-0.3,2.1-2.3c0.7-2.5,1.3-3.4,2.8-3.9
				c3.1-1,6,1.4,5.3,4.4c-0.6,2.2-3.6,4.3-5.6,3.9c-1.9-0.3-2,0-2.4,5.8c-0.2,3.6-0.2,5.4,0,5.7c0.3,0.3,1,0.2,2.5-0.1
				c3-0.6,4.6-0.2,5.9,1.2c2,2.2,2.3,5.2,0.9,8.1c-0.8,1.6-2.6,2.9-4,2.9c-2.7,0-4.3-1.6-5.4-5.2c-0.3-1-0.8-1.9-1-2
				c-0.3-0.1-1.8,0-3.4,0.2c-1.6,0.2-4.6,0.6-6.6,0.9c-2,0.3-3.7,0.5-3.8,0.5c0,0-0.2,0.3-0.4,0.7c-0.8,1.5,2.1,7.6,5,10.4
				c2.5,2.4,5,3.7,9.2,4.6c2.7,0.6,10.6,0.4,13.6-0.3c3.4-0.9,5.6-2,7.9-4.3C450.4,351.3,452,347.4,452,342z"/>
			<path class="st0" d="M485,335.1c-0.1,2.5-0.2,3.4-0.8,5c-1,2.8-1.4,3.2-3.9,4c-9.7,3-11.9,4-14.5,6.6c-1.3,1.3-2.1,2.5-2.6,3.9
				c-0.6,1.7-0.8,2.4-0.7,5.6c0,1.1,0,2.1,0.1,3.1v0c0.1,3.2,0.3,3.7,1.5,6.7c0.8,1.9,1.5,3.9,1.5,4.4c0,2.6-11.7,10.5-15.5,10.5
				c-1.6,0-2.7-0.9-5.8-4.9c-2.8-3.5-4.8-5.3-7.2-6.4c-1.4-0.6-2.3-0.8-5-0.8c-5.3,0-7.1,1.2-14.4,9.2c-2.9,3.2-3.4,3.4-6.3,2.2
				c-3.7-1.5-10.8-6.4-12.5-8.6c-1.2-1.5-1-2.4,1.1-7.2c1.5-3.2,1.7-4,1.8-6.6c0.3-6.6-3.1-12.5-8.9-15.4c-2.5-1.3-4.4-1.7-7.9-2
				c-1.5-0.1-3-0.4-3.4-0.6c-1.3-0.7-1.9-3.8-1.9-10.5c0-8.7,0.5-10.2,3.6-10.6c5-0.6,6.7-1,9.1-2.2c3.3-1.6,6.8-5,8.3-8
				c0.9-1.8,1-2.6,1.1-5.8c0.1-3.6,0.1-3.8-1.4-7.7c-0.8-2.2-1.6-4.6-1.7-5.3c0-0.1,0-0.1,0-0.2c-0.1-0.5,0-0.8,0.2-1.2l0,0l0.2,1.8
				c0.1,1,0.6,2.5,1,3.4c2.1,4.8,2.7,10.1,1.5,13.4c-1.8,4.7-6.1,9-11,10.7c-1.4,0.5-3.5,0.9-7.7,1.5c-1.4,0.2-1.7,0.4-2.3,1.6
				c-0.6,1.2-0.7,2.1-0.7,7.9c0,6.5,0.5,10.1,1.4,10.9c0.2,0.2,1.7,0.4,3.2,0.5c3.8,0.3,5.9,0.8,8.3,2c5.5,2.8,9.3,8.9,9.3,15.1
				c0,2.4-0.6,4.4-2.6,8.8c-1.7,3.7-1.7,4.4,0.4,6.5c2.1,2.1,7.4,5.7,10.3,7.1c4,1.9,4.2,1.8,9.5-4.3c3.6-4.1,5.9-5.7,9.3-6.5
				c2.1-0.5,2.9-0.5,4.8-0.2c4.3,0.7,6.9,2.6,10.8,7.6c2.8,3.6,3.8,4.4,5.4,4.4c3.8,0,15.1-7.6,15.1-10.2c0-0.5-0.7-2.6-1.5-4.6
				l-1.5-3.6v-5.3c0-5,0-5.3,1-7.3c2-4,5.8-6.4,13.9-8.9c2.4-0.7,4.7-1.4,5-1.6c0.9-0.5,1.9-2.6,2.5-5.8
				C484.7,336.6,484.9,335.9,485,335.1z"/>
			<path class="st0" d="M485,329.8c-0.1-0.7-0.2-1.4-0.4-2.1c-0.7-2.9-1-3.1-6.2-4.7c-2-0.6-4.6-1.5-5.9-1.9c-3-1-4.7-1.8-6.3-3.3
				c-4.4-3.9-5.3-10.7-2.6-18.3c0.7-2,1.4-4.6,1.5-5.7c0.1-2,0.1-2.1-1.2-3.3c-1.9-1.8-7-5.1-9.8-6.4c-1.4-0.7-2.9-1.1-3.9-1.2
				c-1.6-0.1-1.6,0-3.9,2.6c-3.7,4.3-6.8,7.2-8.4,8c-0.8,0.4-2.5,1-3.9,1.2c-2.1,0.4-2.8,0.4-4.8,0c-4.3-0.9-6.2-2.3-10.6-7.8
				c-3.7-4.5-5.2-5.1-9-3.2c-2.2,1.1-6.8,4.6-8.9,6.7l-1.9,1.9l0,0c0.3-0.5,0.8-1.1,1.9-2.2c3.8-3.9,9.9-7.7,12.5-7.7
				c1.9,0,2.8,0.7,5.9,4.5c1.5,1.8,3.3,3.9,4.1,4.6c3.9,3.3,8.9,4.1,13.5,2.1c2.6-1.1,4.1-2.4,7.8-6.7c3.6-4.1,4.5-4.7,6.7-4.2
				c2.9,0.7,11.8,6.1,13.6,8.3c1,1.3,0.8,3.3-0.8,7.7c-1.2,3.4-1.4,4-1.5,6.9c-0.1,1.1-0.1,2.1,0,3.1c0,2.7,0.2,3.2,1.1,5.1
				c1.2,2.6,3,4.4,5.6,5.7c1.6,0.8,2.6,1.1,8.3,2.8C483.9,324.3,484.8,324.7,485,329.8z"/>
			<path class="st0" d="M465,370.6c1.4,3.4,1.5,3.8,0.7,5.2c-1.5,2.9-11.4,9.2-15.2,9.7c-1.9,0.3-3.5-0.9-6.3-4.4
				c-2.8-3.7-4.8-5.5-7.1-6.6c-1.4-0.7-2-0.9-3.8-0.9c-0.8-0.1-1.5-0.1-2.3,0c-2.1,0-2.9,0.2-4.1,0.8c-2.1,1-4.4,3.1-7.9,7
				c-4,4.5-4.4,4.7-7.7,3.6c-3.5-1.3-9.4-5.2-12.4-8.2c-1.4-1.4-1.6-1.8-1.5-3.1c0-0.9,0.7-2.9,1.7-5.1c1.3-2.9,1.6-3.7,1.8-5.8
				c0,0,0,0,0,0c0.1-0.5,0.1-1,0.1-1.5c0-0.4,0-0.8-0.1-1.3c0,0,0,0,0,0c-0.1-3-1-5.3-2.8-7.9c-2.1-3-4.8-4.9-8.3-5.9c0,0,0,0,0,0
				c-0.1,0-0.2-0.1-0.2-0.1c-0.1,0-0.2-0.1-0.4-0.1c0,0,0,0,0,0c-1.1-0.3-2.2-0.5-3.4-0.6c-4.2-0.4-5.3-0.8-5.8-2
				c-0.6-1.5-1-3.9-1.2-6.6c0,0,0-0.1,0-0.1c-0.1-1.8-0.1-3.8-0.1-5.6c0,0,0-0.1,0-0.1c0.1-2.9,0.5-5.4,1.1-6.7
				c0.7-1.4,1.3-1.7,6.1-2.4c4.7-0.7,7.8-2.2,10.6-5c2.5-2.5,3.5-4.2,4.3-7.1c0.1-0.5,0.2-1,0.3-1.5c0,1.9-0.2,2.6-0.9,4.1
				c-2.1,4.5-8.1,8.9-13.2,9.7c-2.8,0.4-4.5,0.7-5.5,0.9c-0.6,0.1-1.1,0.7-1.6,1.8c-0.7,1.5-0.8,2.2-0.8,8.5
				c0,7.5,0.5,10.5,1.9,11.2c0.4,0.2,2.2,0.5,4.1,0.7c5.4,0.5,8.7,2,11.9,5.3c2.8,3,4.3,6.9,4.3,10.8c0,2.3-0.5,4-2.4,8.2
				c-2,4.4-1.9,5.3,0.3,7.5c2.9,2.8,8.1,6.3,11.5,7.7c0.8,0.3,2,0.6,2.8,0.7h0c0,0,0.1,0,0.1,0c0.1,0,0.1,0,0.2,0
				c1.2,0,1.5-0.2,3.6-2.5c4.2-4.7,7.2-7.5,8.8-8.2c1.4-0.7,2.8-1.1,4.2-1.3c0.4,0,0.9,0,1.4,0c0.5,0,1,0,1.4,0
				c0.3,0,0.5,0.1,0.8,0.1c4,0.8,6.4,2.6,10.1,7.5c2.9,3.8,4,4.6,6.2,4.4c0.9-0.1,2.7-0.7,4-1.3c3.1-1.5,8.2-5,10-6.9
				c1.8-1.9,1.8-3,0.4-6.4c-1.6-3.8-2.1-6.1-2.1-10.1h0c0,1.5,0.2,3,0.5,4.6v0.7l0.5,1.1C464.1,368.1,464.5,369.3,465,370.6z"/>
			<path class="st0" d="M465.7,375.8c0.7-1.4,0.7-1.9-0.7-5.2c-0.5-1.2-0.9-2.4-1.3-3.6l1,2.5c2.1,5.1,2,5.7-0.7,8.3
				c-4.3,4.1-10.9,7.8-14,7.8c-2.1,0-3.1-0.8-6.8-5.4c-3.3-4.1-6.4-6.2-9.9-6.6c1.7,0.1,2.4,0.3,3.8,0.9c2.3,1.1,4.2,2.9,7.1,6.6
				c2.7,3.5,4.4,4.7,6.3,4.4C454.3,385,464.2,378.7,465.7,375.8z"/>
			<path class="st0" d="M465.9,293c0,0.7-0.7,3.3-1.6,5.9c-1,2.9-1.5,5-1.7,6.8c0-2.9,0.2-3.5,1.5-6.9c1.6-4.5,1.8-6.4,0.8-7.7
				c-1.7-2.2-10.6-7.6-13.6-8.3c-2.2-0.5-3.1,0.1-6.7,4.2c-3.7,4.2-5.2,5.5-7.8,6.7c-4.6,2-9.6,1.3-13.5-2.1
				c-0.8-0.7-2.6-2.7-4.1-4.6c-3.1-3.9-4-4.5-5.9-4.5c-2.6,0-8.7,3.8-12.5,7.7c-1.1,1.1-1.6,1.7-1.9,2.2c-0.2,0.4-0.2,0.7-0.2,1.2h0
				c-0.1-1.6,0-1.7,1.6-3.4c2.1-2.1,6.7-5.6,8.9-6.7c4.6-2.3,6-1.9,10.1,3.2c3.4,4.2,4.9,5.5,7.4,6.7c1.7,0.8,2.4,0.9,5.1,0.9
				c5.3,0,7-1.2,14.6-9.5l2-2.2c0.2-0.1,0.4-0.2,0.6-0.3l1.4,0.1c2.2,0.2,5.1,1.5,9.2,4.3C464.2,289.8,465.9,291.4,465.9,293z"/>
			<path class="st0" d="M465.6,374.4c0-0.5-0.7-2.5-1.5-4.4c-1.2-3-1.4-3.5-1.5-6.7c0.2,2.2,0.8,4.2,1.9,6.7c1.7,4,1.7,5-0.3,7
				c-3.1,3.1-10.6,7.6-13.7,8.1c-1.5,0.2-3.1-0.8-5.1-3.4c-3.4-4.3-5.3-6.2-7.5-7.4c-1.8-1-2.2-1.2-4.5-1.2c-0.9-0.1-1.9-0.1-2.8,0
				c-2,0-2.7,0.2-3.8,0.8c-2.4,1.2-4.1,2.8-7.5,6.7c-2.6,3-4.2,4.4-5.1,4.5c0,0-0.1,0-0.1,0c0,0-0.1,0-0.1,0h0
				c-0.3-0.1-1.1-0.3-1.9-0.6c-1-0.3-2.8-1.2-4.1-1.9c-2.7-1.5-8.4-5.8-9.2-7c-0.9-1.3-0.7-3.2,1-6.9c2.1-4.6,2.6-7,2-10.2
				c-1-5.3-4.4-9.9-9.2-12.3c-1.8-0.9-3-1.2-6.5-1.6c-2.4-0.3-4.5-0.7-4.8-0.9c-1.1-0.9-1.4-3.5-1.4-10.5h0c0,6.7,0.6,9.8,1.9,10.5
				c0.4,0.2,1.9,0.4,3.4,0.6c3.5,0.2,5.4,0.7,7.9,2c5.9,2.9,9.3,8.8,8.9,15.4c-0.1,2.6-0.4,3.4-1.8,6.6c-2.2,4.7-2.3,5.6-1.1,7.2
				c1.7,2.2,8.8,7.1,12.5,8.6c2.9,1.2,3.4,1,6.3-2.2c7.3-8,9.1-9.2,14.4-9.2c2.7,0,3.6,0.1,5,0.8c2.5,1.1,4.5,2.9,7.2,6.4
				c3.1,3.9,4.2,4.9,5.8,4.9C453.8,384.9,465.6,377,465.6,374.4z"/>
			<path class="st0" d="M463.7,367l-0.5-1.1v-0.7C463.4,365.7,463.6,366.3,463.7,367z"/>
			<path class="st0" d="M462.6,305.7c0,0.4,0,0.9,0,1.5c0,0.6,0,1.1,0,1.6C462.5,307.8,462.5,306.8,462.6,305.7z"/>
			<path class="st0" d="M462.5,361.6c0,0.7,0,1.2,0.1,1.7c-0.1-1-0.1-2-0.1-3.1C462.5,360.6,462.5,361.1,462.5,361.6z"/>
			<path class="st0" d="M451,336.3c0.9,1.9,1,2.6,1,5.7c0,5.3-1.6,9.3-5.1,12.7c-2.3,2.2-4.4,3.4-7.9,4.3c-3,0.8-10.9,0.9-13.6,0.3
				c-4.2-1-6.7-2.2-9.2-4.6c-2.9-2.8-5.8-8.8-5-10.4c0.2-0.4,0.4-0.7,0.4-0.7c0,0,1.7-0.2,3.8-0.5c2-0.3,5-0.7,6.6-0.9
				c1.6-0.2,3.1-0.3,3.4-0.2c0.3,0.1,0.7,1,1,2c1,3.6,2.7,5.2,5.4,5.2c1.4,0,3.3-1.3,4-2.9c1.4-2.9,1.1-5.9-0.9-8.1
				c-1.3-1.4-2.9-1.8-5.9-1.2c-1.5,0.3-2.3,0.3-2.5,0.1c-0.2-0.2-0.3-2.1,0-5.7c0.3-5.8,0.5-6.1,2.4-5.8c2.1,0.4,5.1-1.7,5.6-3.9
				c0.8-3-2.2-5.4-5.3-4.4c-1.5,0.5-2.2,1.4-2.8,3.9c-0.5,2-1,2.5-2.1,2.3c-0.4-0.1-2.1-0.4-3.9-0.7c-1.7-0.3-4.2-0.8-5.5-1
				c-3.2-0.6-3.6-1.1-3.1-3.1c1.2-4.2,4.5-8.4,7.8-10.1c3.7-1.9,8.7-2.6,15.1-2.1c3.8,0.3,5.7,0.8,8,2c4.4,2.3,7.2,7.2,6.8,12.3
				c-0.2,2.9-1.2,5.1-3.3,7.3c-1.5,1.6-1.8,2.5-0.7,2.5C446.8,330.6,450,334.1,451,336.3z M450.2,349.7c1.8-4,2.1-10,0.7-13.4
				c-0.8-1.9-3.1-4.4-5-5.4l-1.6-0.8l1.7-1.8c2.4-2.5,3.2-4.4,3.4-7.4c0.2-3.3-0.4-5.6-2.1-8.2c-2.9-4.3-7.9-6.3-16.1-6.3
				c-9.2,0-14.8,3-17.9,9.4c-1.3,2.7-1.6,4.3-0.9,4.8c0.3,0.2,1.4,0.5,2.6,0.7c1.2,0.2,3.9,0.7,6.1,1.1c4.4,0.8,4.8,0.8,5.2-1.2
				c0.4-1.7,1.5-3.7,2.3-4.1c1.2-0.6,4.1-0.5,5,0.3c3.3,2.9,0.6,8.3-4.1,8.2c-2.1,0-2.3,0.3-2.3,3.2c0,0.3,0,0.7,0,1.1
				c0,0.3,0,0.6-0.1,0.9c-0.1,0.9-0.2,1.8-0.3,2.5c-0.6,3.4-0.1,3.9,3.3,3c3.1-0.8,5.7,0.7,6.7,4c0.6,1.8,0.6,2.2,0.1,4
				c-0.9,3.7-3.7,5.7-6.7,4.7c-1.9-0.6-3-2-3.7-4.6c-0.3-1.2-0.8-2.2-1-2.3c-0.3-0.1-1.9,0-3.7,0.3c-1.8,0.2-4.7,0.6-6.4,0.8
				c-1.7,0.2-3.4,0.5-3.6,0.7c-0.7,0.4-0.3,2.3,1.2,5.3c2.3,4.7,5.9,7.8,10.5,9.1c3.9,1.1,12.3,1.2,16.3,0.2
				C443.9,357.6,448.3,353.8,450.2,349.7z"/>
			<path class="st0" d="M450.8,336.4c1.5,3.4,1.2,9.3-0.7,13.4c-1.9,4.1-6.3,7.8-10.5,8.9c-4,1-12.3,0.9-16.3-0.2
				c-4.5-1.3-8.2-4.4-10.5-9.1c-1.5-3-1.9-4.9-1.2-5.3c0.3-0.2,1.9-0.5,3.6-0.7c1.7-0.2,4.6-0.6,6.4-0.8c1.8-0.2,3.4-0.3,3.7-0.3
				c0.3,0.1,0.7,1.1,1,2.3c0.7,2.6,1.9,4,3.7,4.6c3,1,5.8-1,6.7-4.7c0.4-1.8,0.4-2.2-0.1-4c-1-3.3-3.6-4.8-6.7-4
				c-3.4,0.9-3.9,0.4-3.3-3c0.1-0.6,0.2-1.5,0.3-2.5c-0.1,2.4-0.1,5,0.1,5.3c0.3,0.3,0.9,0.3,2.6,0.1c2.9-0.4,4.4-0.1,5.7,1.2
				c2,1.9,2.5,6,1.1,8.8c-1,2.1-2.7,3.1-4.8,3.1c-2.9,0-4.6-1.7-5.6-5.5c-0.2-0.8-0.6-1.5-0.8-1.6c-0.3-0.1-3.4,0.2-6.9,0.8
				l-6.5,0.9l0,1.4c0,1.9,2,5.7,4.2,8.2c1.8,2,4.5,3.7,7.3,4.6c3,1,11.4,1.1,15.4,0.3c4-0.8,8.3-3.9,10.4-7.3
				c2.7-4.4,3.3-11.2,1.3-15.2c-1-2-3-4-5-5l-1.7-0.9l2-2.1c2.1-2.2,2.8-3.6,3.4-6.4c0.4-2.2-0.1-5.3-1.3-7.7
				c-2.6-5.1-7.7-7.3-16.5-7.3c-7.2,0-11.2,1.3-14.6,4.7c-2.8,2.8-5.2,8.4-4,9.1c0.4,0.2,8,1.7,10.8,2.1c2,0.3,1.8,0.5,3.1-3.1
				c0.7-2.1,2.1-3,4.4-3c2.4,0,3.8,1.3,4,3.7c0.3,3-1.9,5.3-5.4,5.7c-1.8,0.2-2.1,0.3-2.3,1.1c-0.1,0.6-0.3,1.7-0.4,3
				c0-0.4,0-0.8,0-1.1c0-2.9,0.3-3.3,2.3-3.2c4.7,0.1,7.4-5.3,4.1-8.2c-0.8-0.7-3.8-0.9-5-0.3c-0.8,0.4-1.9,2.4-2.3,4.1
				c-0.4,1.9-0.8,2-5.2,1.2c-2.2-0.4-4.9-0.9-6.1-1.1c-1.2-0.2-2.3-0.6-2.6-0.7c-0.7-0.5-0.3-2.2,0.9-4.8c3.1-6.4,8.7-9.4,17.9-9.4
				c8.1,0,13.2,2,16.1,6.3c1.7,2.5,2.3,4.9,2.1,8.2c-0.2,3-1.1,4.9-3.4,7.4l-1.7,1.8l1.6,0.8C447.7,332,450,334.4,450.8,336.4z"/>
			<path class="st0" d="M450.1,336.4c1.2,2.5,1.4,7.3,0.4,10.6c-0.7,2.5-2.8,6-4.3,7.3c-1.7,1.5-4.9,3.2-7.2,3.7
				c-3,0.7-6.7,0.9-10.9,0.5c-5.4-0.4-8.5-1.8-11.8-5.3c-1.9-2.1-4.1-6.1-4.1-7.8l0-1.1c0,0,0,0,0,0l5.4-0.8
				c4.7-0.7,6.5-0.9,7.3-0.7c-0.9-0.1-7.9,0.8-11.4,1.4c-1.1,0.2-1.2,0.2-1,1.5c0.3,2.2,2.4,5.7,4.4,7.8c3.5,3.5,7.4,4.8,14.7,4.9
				c3.3,0,5.1-0.1,7.1-0.6c3.4-0.9,5.2-1.8,7.3-3.8c1.9-1.8,3.4-4.2,4.3-7.1c0.8-2.6,0.8-7.3,0-9.7c-0.8-2.3-2.9-4.7-5-5.7
				c-1.1-0.5-1.8-0.9-2.1-1.2c0.2,0.2,0.8,0.4,1.4,0.7C446.7,331.9,449.1,334.2,450.1,336.4z"/>
			<path class="st0" d="M450.5,347c1-3.3,0.8-8.1-0.4-10.6c-1.1-2.2-3.4-4.5-5.4-5.3c-0.7-0.2-1.2-0.5-1.4-0.7h0
				c0-0.1-0.1-0.1-0.1-0.2c0.2-0.2,0.9-1,1.8-1.9c2.6-2.5,3.4-4.3,3.6-7.6c0.2-3.5-0.5-6.1-2.5-8.4c-3-3.6-7.4-5.2-14.8-5.2
				c-7,0-11.4,1.5-14.7,5c-1.7,1.8-4.1,6.5-4,7.5c0.1,0.5,1.1,0.8,5.9,1.8c3.2,0.6,6,1.1,6.2,1c0.2-0.1,0.6-0.9,0.8-1.8
				c0.3-1,0.9-2.1,1.7-3c1.2-1.3,1.4-1.4,3.4-1.4c3.3,0,4.9,1.8,4.6,5.1c-0.3,2.9-2.2,4.6-5.4,5l-1.9,0.2c0.3-0.4,0.6-0.4,1.1-0.3
				c1.1,0.3,3.7-0.9,4.9-2.2c2.6-3,1.2-7.3-2.5-7.8c-2.9-0.3-4.6,1.1-5.7,4.6c-0.3,1-0.6,1.4-1.2,1.5c-1.2,0.2-11.2-1.8-11.8-2.3
				c-0.5-0.5-0.2-1.8,1.1-4.5c1.9-3.8,5.1-6.5,9.5-7.9c2.1-0.7,3.3-0.8,7.9-0.8c4.6,0,5.9,0.1,8.1,0.8c9.8,2.9,13,13.5,6.1,20.3
				c-1,1-1.9,2-1.9,2.1c0,0.1,0.6,0.4,1.3,0.7c1.6,0.6,4.1,2.9,5.2,4.7c2,3.4,1.8,9.5-0.4,14.1c-2.2,4.5-5.6,7.2-10.9,8.5
				c-2.1,0.5-3.8,0.7-7.1,0.7c-7.5-0.1-11.2-1.3-14.9-5c-2.3-2.3-4.7-6.6-4.7-8.5c0-0.5-0.1-0.7,0.2-0.9l0,1.1
				c0.1,1.7,2.2,5.7,4.1,7.8c3.3,3.5,6.4,4.9,11.8,5.3c4.2,0.3,8,0.1,10.9-0.5c2.3-0.5,5.6-2.2,7.2-3.7
				C447.7,353,449.8,349.5,450.5,347z"/>
			<path class="st1" d="M449.7,336.9c0.7,1.6,0.9,2.4,0.9,5.1c0,8.2-4.8,14.1-12.6,15.8h0c-3,0.6-9.7,0.6-12.6,0
				c-5.3-1.1-8.9-4-11.3-8.7c-0.8-1.5-1.4-3.1-1.4-3.4c0-0.8-0.1-0.7,6.7-1.7c4.7-0.7,5.1-0.7,5.5-0.1c0.2,0.3,0.4,0.8,0.4,1.1
				c0,0.3,0.4,1.3,1,2.3c1.9,3.6,6.6,4.4,9.6,1.7c2.9-2.6,3-8.7,0.3-11.7c-1.5-1.7-3.2-2.2-6.3-1.9l-2.2,0.2l0.2-3.8
				c0.3-4.6,0.3-4.7,1.3-4.7c3.9,0,7.3-3.6,6.8-7.2c-0.4-2.7-2.4-4.4-5.1-4.4c-2.9,0-5.1,2-5.8,5.2c-0.3,1.4-0.2,1.4-6.7,0.2
				c-4-0.8-4.9-1.1-5-1.6c-0.2-1,1.9-5,3.6-6.8c3.3-3.5,7-4.7,14.4-4.7c8.8,0,13.2,2,15.7,7c1,2.1,1.2,2.7,1.1,5.2
				c0,4-1.3,6.3-4.7,9c-1.5,1.2-1.3,1.7,1.1,2.8C447,332.9,448.6,334.5,449.7,336.9z"/>
			<path class="st0" d="M450.5,336.1c2,3.9,1.4,10.8-1.3,15.2c-2.1,3.4-6.4,6.4-10.4,7.3c-4,0.9-12.4,0.7-15.4-0.3
				c-2.8-0.9-5.5-2.6-7.3-4.6c-2.2-2.4-4.2-6.2-4.2-8.2l0-1.4l6.5-0.9c3.5-0.5,6.7-0.9,6.9-0.8c0.2,0.1,0.6,0.8,0.8,1.6
				c1,3.8,2.8,5.5,5.6,5.5c2.1,0,3.7-1.1,4.8-3.1c1.4-2.8,0.9-6.8-1.1-8.8c-1.3-1.3-2.8-1.6-5.7-1.2c-1.7,0.2-2.3,0.2-2.6-0.1
				c-0.2-0.3-0.2-2.9-0.1-5.3c0-0.3,0-0.6,0.1-0.9c0.1-1.3,0.2-2.5,0.4-3c0.2-0.8,0.5-0.9,2.3-1.1c3.5-0.4,5.6-2.7,5.4-5.7
				c-0.2-2.4-1.6-3.7-4-3.7c-2.3,0-3.7,0.9-4.4,3c-1.3,3.6-1,3.4-3.1,3.1c-2.7-0.4-10.4-1.9-10.8-2.1c-1.2-0.8,1.2-6.3,4-9.1
				c3.4-3.4,7.5-4.7,14.6-4.7c8.9,0,14,2.2,16.5,7.3c1.2,2.4,1.7,5.4,1.3,7.7c-0.5,2.8-1.2,4.2-3.4,6.4l-2,2.1l1.7,0.9
				C447.5,332.1,449.4,334.1,450.5,336.1z M449.6,349.8c2.2-4.6,2.4-10.7,0.4-14.1c-1.1-1.9-3.6-4.2-5.2-4.7
				c-0.7-0.3-1.3-0.6-1.3-0.7c0-0.1,0.9-1.1,1.9-2.1c6.9-6.8,3.8-17.4-6.1-20.3c-2.2-0.7-3.4-0.8-8.1-0.8c-4.6,0-5.8,0.1-7.9,0.8
				c-4.4,1.4-7.6,4-9.5,7.9c-1.3,2.6-1.6,3.9-1.1,4.5c0.5,0.5,10.5,2.5,11.8,2.3c0.6-0.1,0.9-0.5,1.2-1.5c1.1-3.6,2.8-5,5.7-4.6
				c3.7,0.4,5.1,4.8,2.5,7.8c-1.2,1.3-3.7,2.5-4.9,2.2c-0.5-0.1-0.9-0.1-1.1,0.3l-0.1,0l0,0.2c-0.3,0.7-0.5,2.1-0.6,4.7
				c-0.1,1.9-0.1,3.6,0,4.4l0,0.1h0c0,0.1,0,0.2,0.1,0.2c0.2,0.2,1.3,0.1,2.4-0.1c2.8-0.5,4.5,0,6,1.6c1.1,1.2,1.6,2.8,1.8,4.4
				c0,0,0,0,0,0c0,0.3,0,0.7,0,1.1c0,0.5-0.1,1-0.2,1.4c-0.3,1.3-0.9,2.5-1.8,3.5c-3.2,3.3-8,1.8-9.3-3c-0.3-1.1-0.7-2.2-0.9-2.4
				c-0.2-0.2-2.6,0-5.7,0.4c-5.3,0.7-7,0.9-7.5,1.3h0v0c-0.3,0.2-0.2,0.5-0.2,0.9c0,1.9,2.4,6.2,4.7,8.5c3.7,3.7,7.5,5,14.9,5
				c3.3,0,5.1-0.1,7.1-0.7C444,357,447.4,354.3,449.6,349.8z"/>
			<path class="st0" d="M450.4,337.4c0.8,2.4,0.8,7.1,0,9.7c-0.9,2.9-2.4,5.3-4.3,7.1c-2.1,2-3.9,2.9-7.3,3.8
				c-2,0.5-3.8,0.7-7.1,0.6c-7.3-0.1-11.2-1.4-14.7-4.9c-2-2-4.1-5.6-4.4-7.8c-0.2-1.2-0.2-1.3,1-1.5c3.6-0.6,10.6-1.5,11.4-1.4
				c0,0,0.1,0,0.1,0.1c0.2,0.2,0.4,0.7,0.5,1.3c1.1,5.2,5.9,7.4,9.6,4.6c0.1-0.1,0.3-0.2,0.4-0.4c2.5-2.2,3.1-6.6,1.4-9.9
				c-1.3-2.5-3.9-3.5-7.1-2.9c-1,0.2-1.9,0.2-2.1,0.1s-0.1-2.2,0-4.6l0.3-4.3l2.2-0.4c2.7-0.6,4-1.4,5-3.4c0.9-1.9,0.9-2.8,0-4.7
				c-1-2.3-3.8-3.2-6.4-2c-1.4,0.6-2.5,2.1-3.1,4.2c-0.5,2-0.5,2-7.5,0.6c-5.7-1.1-5.8-1.1-4.1-4.8c1.2-2.6,3.7-5.4,5.9-6.7
				c3.1-1.8,5.4-2.3,11.1-2.3c7.6,0,11.4,1.1,14.5,4.4c2.2,2.4,3,4.3,3,7.9c0,2.6-0.1,3.2-1,5c-0.6,1.2-1.7,2.7-2.9,3.7
				c-1.1,1-1.6,1.4-1.5,1.8c0,0,0,0.1,0,0.1c0,0,0,0.1,0.1,0.1h0c0.2,0.3,0.9,0.6,2.1,1.2C447.5,332.7,449.6,335.1,450.4,337.4z
				 M450.6,342c0-2.6-0.1-3.5-0.9-5.1c-1.1-2.4-2.8-4.1-5.1-5.2c-2.4-1.1-2.6-1.7-1.1-2.8c3.4-2.6,4.6-5,4.7-9
				c0-2.5-0.1-3.1-1.1-5.2c-2.5-5.1-6.8-7-15.7-7c-7.4,0-11.1,1.2-14.4,4.7c-1.7,1.8-3.8,5.8-3.6,6.8c0.1,0.5,1.1,0.8,5,1.6
				c6.4,1.2,6.4,1.2,6.7-0.2c0.7-3.1,2.9-5.2,5.8-5.2c2.7,0,4.7,1.7,5.1,4.4c0.5,3.6-2.8,7.2-6.8,7.2c-1,0-1,0.1-1.3,4.7l-0.2,3.8
				l2.2-0.2c3-0.3,4.8,0.2,6.3,1.9c2.7,3,2.5,9.1-0.3,11.7c-3,2.7-7.7,1.9-9.6-1.7c-0.5-1-1-2-1-2.3c0-0.3-0.2-0.8-0.4-1.1
				c-0.4-0.5-0.8-0.5-5.5,0.1c-6.7,0.9-6.7,0.9-6.7,1.7c0,0.4,0.6,1.9,1.4,3.4c2.4,4.7,6,7.5,11.3,8.7c2.9,0.6,9.7,0.6,12.6,0h0
				C445.8,356.1,450.6,350.2,450.6,342z"/>
			<path class="st0" d="M448.7,282.2l0.3,0c-0.2,0.1-0.4,0.2-0.6,0.3L448.7,282.2z"/>
			<path class="st0" d="M446.2,312.4c1.9,2.4,2.7,4.9,2.5,8.4c-0.2,3.3-1.1,5.1-3.6,7.6c-0.9,0.9-1.7,1.7-1.8,1.9
				c-0.1-0.4,0.4-0.9,1.5-1.8c1.2-1.1,2.3-2.5,2.9-3.7c0.9-1.7,1-2.4,1-5c0-3.6-0.8-5.5-3-7.9c-3-3.3-6.8-4.5-14.5-4.4
				c-5.7,0-8.1,0.5-11.1,2.3c-2.2,1.3-4.7,4.1-5.9,6.7c-1.7,3.6-1.7,3.7,4.1,4.8c7,1.3,6.9,1.3,7.5-0.6c0.6-2.1,1.6-3.6,3.1-4.2
				c2.7-1.1,5.4-0.3,6.4,2c0.9,1.9,0.9,2.9,0,4.7c-0.9,2-2.3,2.9-5,3.4l-2.2,0.4l-0.3,4.3c-0.1,2.4-0.1,4.4,0,4.6s1.1,0.1,2.1-0.1
				c3.3-0.7,5.8,0.4,7.1,2.9c1.7,3.3,1.1,7.7-1.4,9.9c-0.1,0.1-0.3,0.2-0.4,0.4l0,0c1.2-0.9,2-2.3,2.3-4.3c0.2-0.8,0.3-1.7,0.2-2.5
				c0,0,0,0,0,0c0-1.4-0.1-2-0.7-3.1c-0.4-0.9-1.4-1.9-2-2.4c-1.1-0.7-1.5-0.8-4.4-0.7l-3.1,0.1c0,0,0-0.1,0-0.1l0.1-3
				c0.1-1.7,0.2-3.9,0.4-4.7l0.2-1.4c0-0.1,0.1-0.2,0.1-0.2l1.9-0.2c3.1-0.3,5.1-2.1,5.4-5c0.4-3.3-1.2-5.1-4.6-5.1
				c-2,0-2.2,0.1-3.4,1.4c-0.8,0.9-1.4,2-1.7,3c-0.2,0.9-0.6,1.7-0.8,1.8c-0.2,0.1-3-0.3-6.2-1c-4.7-0.9-5.8-1.3-5.9-1.8
				c-0.2-1.1,2.2-5.7,4-7.5c3.3-3.5,7.7-5,14.7-5C438.8,307.2,443.2,308.8,446.2,312.4z"/>
			<path class="st0" d="M448.6,282.2L448.6,282.2l-0.3,0.4c-1,0.6-2,1.7-3.6,3.5c-5.2,6.1-7.7,7.7-12.1,8.1
				c-5.3,0.4-8.1-1.2-13.2-7.4c-4.3-5.2-5.6-5.7-10.2-3.3c-3.3,1.7-6.7,4.2-9.2,6.8c-1.3,1.4-1.7,1.8-1.8,2.6h0
				c0-1.2,0.4-1.5,2.4-3.4c2.9-2.9,8.4-6.5,10.9-7.2c2.9-0.9,4.4-0.1,7.5,3.8c2.7,3.4,5.4,6,7.1,6.9c3.2,1.6,7.2,1.8,10.3,0.4
				c2.6-1.1,4.5-2.8,7.6-6.5c1.5-1.7,3-3.4,3.6-4c0.1-0.1,0.2-0.1,0.2-0.2C448.1,282.4,448.3,282.3,448.6,282.2z"/>
			<path class="st0" d="M448.3,282.6l-2,2.2c-7.5,8.4-9.3,9.5-14.6,9.5c-2.7,0-3.4-0.1-5.1-0.9c-2.5-1.2-4-2.5-7.4-6.7
				c-4.1-5.1-5.5-5.5-10.1-3.2c-2.2,1.1-6.8,4.6-8.9,6.7c-1.6,1.7-1.7,1.8-1.6,3.4c0,0.1,0,0.2,0,0.3c0.1,1,0.8,3.4,1.5,5.4
				c1.2,3.2,1.4,3.8,1.4,7c0,3.4,0,3.6-1.3,6.2c-2.5,5.1-7.3,8.5-13.6,9.6c-7.5,1.3-7.2,0.7-7.2,10.9c0,0.2,0,0.4,0,0.5
				c0,7.1,0.4,9.7,1.4,10.5c0.3,0.2,2.4,0.6,4.8,0.9c3.5,0.4,4.7,0.7,6.5,1.6c4.8,2.4,8.3,6.9,9.2,12.3c0.6,3.3,0.1,5.6-2,10.2
				c-1.7,3.7-1.9,5.5-1,6.9c0.8,1.1,6.5,5.5,9.2,7c1.3,0.7,3.1,1.6,4.1,1.9c0.8,0.3,1.6,0.5,1.9,0.6c-0.8,0-2-0.3-2.8-0.7
				c-3.4-1.4-8.6-4.9-11.5-7.7c-2.3-2.2-2.3-3.1-0.3-7.5c1.9-4.2,2.4-5.9,2.4-8.2c0-4-1.5-7.8-4.3-10.8c-3.1-3.4-6.4-4.9-11.9-5.3
				c-1.9-0.2-3.7-0.5-4.1-0.7c-1.4-0.7-1.9-3.7-1.9-11.2c0-6.3,0-7,0.8-8.5c0.5-1.1,1-1.7,1.6-1.8c1-0.2,2.7-0.5,5.5-0.9
				c5.2-0.8,11.1-5.1,13.2-9.7c0.7-1.5,0.9-2.1,0.9-4.1c0.1-1,0.1-2.1,0-3.2c0-2.4-0.3-3.1-1.3-5.8c-0.7-1.8-1.4-4.1-1.5-5.1
				c-0.1-0.5-0.1-0.9-0.1-1.2c0-0.8,0.4-1.2,1.8-2.6c2.5-2.7,5.9-5.1,9.2-6.8c4.6-2.3,5.9-1.9,10.2,3.3c5.1,6.2,7.9,7.8,13.2,7.4
				c4.5-0.3,7-2,12.1-8.1C446.3,284.3,447.4,283.1,448.3,282.6z"/>
			<path class="st0" d="M447.6,282.7L447.6,282.7c-0.7,0.6-2.2,2.2-3.6,4c-3.1,3.7-5.1,5.4-7.6,6.5c-3.1,1.4-7.1,1.2-10.3-0.4
				c-1.7-0.8-4.4-3.4-7.1-6.9c-3.1-3.9-4.6-4.7-7.5-3.8c-2.5,0.7-7.9,4.3-10.9,7.2c-2,1.9-2.3,2.3-2.4,3.4c0,0.2,0,0.4,0,0.6
				c0,1.2,0.5,3.1,1.4,5.7c0.8,2.4,1.4,4.2,1.6,5.9c0,0.4,0,0.9,0,1.4c0,0.7,0,1.3,0,1.8c-0.1,0.5-0.2,1-0.3,1.5
				c-0.8,2.9-1.8,4.6-4.3,7.1c-2.8,2.8-5.9,4.3-10.6,5c-4.8,0.8-5.4,1-6.1,2.4c-0.6,1.3-1,3.8-1.1,6.7c0-2.7,0.2-5.1,0.5-5.9
				c0.6-1.8,1.7-2.7,3.6-2.9c3.4-0.4,5.9-0.9,7.8-1.6c4.2-1.6,8.6-5.9,9.9-9.8c1-3,0.6-7.4-1-11.5c-1.7-4.2-1.9-6.4-0.9-7.9
				c1.4-2.2,8.7-7.7,12-8.9c3.9-1.5,5.3-0.7,10.1,5.4c2,2.6,3.6,3.9,6,5.2c1.3,0.7,2.1,0.8,4.9,0.8c5.4,0,7-1,13.9-8.8
				C446.4,283.9,447,283.2,447.6,282.7z"/>
			<path class="st0" d="M443.2,330.3c0,0.1,0,0.1,0.1,0.2C443.2,330.4,443.1,330.4,443.2,330.3C443.1,330.4,443.2,330.3,443.2,330.3
				z"/>
			<path class="st0" d="M437.5,342.2c0.1,0.8,0,1.7-0.2,2.5c0.1-0.4,0.1-0.9,0.2-1.4C437.5,342.9,437.5,342.5,437.5,342.2z"/>
			<path class="st0" d="M436.8,339c0.6,1.1,0.7,1.7,0.7,3.1c-0.1-1.6-0.7-3.2-1.8-4.4c-1.5-1.7-3.2-2.2-6-1.6
				c-1.2,0.2-2.3,0.3-2.4,0.1c0,0,0-0.1-0.1-0.2l3.1-0.1c2.8-0.1,3.3,0,4.4,0.7C435.4,337.1,436.3,338.2,436.8,339z"/>
			<path class="st0" d="M437.3,344.7c-0.3,1.9-1.1,3.4-2.3,4.3c-0.9,0.7-1.9,1-3.2,1c-3.1,0-5.2-1.9-6.2-5.6
				c-0.2-0.7-0.3-1.1-0.7-1.3c0,0,0,0,0,0c0,0,0,0-0.1,0c-0.8-0.3-2.6,0-7.3,0.7l-5.4,0.8c0.5-0.3,2.2-0.5,7.5-1.3
				c3-0.4,5.5-0.6,5.7-0.4c0.2,0.2,0.6,1.2,0.9,2.4c1.4,4.8,6.2,6.3,9.3,3C436.4,347.2,437,346,437.3,344.7z"/>
			<path class="st0" d="M435,348.9L435,348.9c-3.7,2.9-8.4,0.7-9.5-4.6c-0.1-0.6-0.3-1.1-0.5-1.3c0.4,0.2,0.5,0.6,0.7,1.3
				c1,3.7,3.1,5.6,6.2,5.6C433.1,350,434.2,349.6,435,348.9z"/>
			<path class="st0" d="M433.4,373.2c-0.4,0-0.9,0-1.4,0c-0.5,0-1,0-1.4,0C431.5,373.1,432.4,373.1,433.4,373.2z"/>
			<path class="st0" d="M433.4,373.5c-0.4,0-0.9,0-1.5,0c-0.3,0-0.6,0-0.9,0C431.9,373.5,432.7,373.5,433.4,373.5z"/>
			<path class="st0" d="M431.1,373.5c-0.3,0-0.5,0.1-0.8,0.1c-3.3,0.6-5.2,1.7-8.3,4.9c-1.5,1.6-3.7,3.9-4.8,5c-1.7,1.8-2.1,2-3.3,2
				c-0.8,0-2.2-0.4-3.3-0.8c-2.8-1.2-8.7-5.1-11.2-7.5c-1.9-1.8-2.1-2.2-2.1-3.4c0-0.8,0.5-2.5,1.3-4.2c1.5-3.3,2.2-5.3,2.5-7
				c-0.1,2.1-0.4,2.9-1.8,5.8c-1.1,2.3-1.7,4.2-1.7,5.1c-0.1,1.3,0.1,1.7,1.5,3.1c3,3.1,8.8,7,12.4,8.2c3.2,1.2,3.7,1,7.7-3.6
				c3.5-3.9,5.8-6,7.9-7C428.2,373.7,429,373.6,431.1,373.5z"/>
			<path class="st0" d="M426.7,374c1.1-0.6,1.8-0.8,3.8-0.8c-1.4,0.2-2.8,0.6-4.2,1.3c-1.6,0.8-4.6,3.6-8.8,8.2
				c-2.1,2.3-2.4,2.5-3.6,2.5c0.9-0.1,2.5-1.5,5.1-4.5C422.6,376.8,424.3,375.3,426.7,374z"/>
			<path class="st0" d="M427.9,326.6l0.1,0c0,0.1-0.1,0.1-0.1,0.2L427.9,326.6z"/>
			<path class="st0" d="M427.9,326.8l-0.2,1.4c-0.1,0.9-0.3,3-0.4,4.7l-0.1,3c-0.1-0.7-0.1-2.5,0-4.4
				C427.4,328.9,427.6,327.5,427.9,326.8z"/>
			<path class="st0" d="M427.2,336.1L427.2,336.1l0-0.1C427.2,336,427.2,336,427.2,336.1z"/>
			<path class="st0" d="M424.9,343.1C424.9,343.1,425,343.1,424.9,343.1C424.9,343.1,424.9,343.1,424.9,343.1
				C424.9,343.1,424.9,343.1,424.9,343.1z"/>
			<path class="st0" d="M413.9,385.2c0,0,0.1,0,0.1,0C413.9,385.2,413.9,385.2,413.9,385.2c-0.1,0-0.1,0-0.1,0
				C413.8,385.2,413.8,385.2,413.9,385.2z"/>
			<path class="st0" d="M412.2,344.5C412.2,344.5,412.2,344.5,412.2,344.5L412.2,344.5L412.2,344.5z"/>
			<path class="st0" d="M400.4,299.1c1.4,3.9,1.5,4.1,1.4,7.7c-0.1,3.2-0.2,4-1.1,5.8c-1.5,3-5,6.4-8.3,8c-2.4,1.2-4.1,1.6-9.1,2.2
				c-3.2,0.4-3.7,1.9-3.6,10.6h0c0-0.2,0-0.3,0-0.5c0-10.1-0.4-9.6,7.2-10.9c6.2-1,11-4.4,13.6-9.6c1.3-2.5,1.3-2.8,1.3-6.2
				c0-3.2-0.1-3.8-1.4-7c-0.7-1.9-1.4-4.3-1.5-5.4c0-0.1,0-0.2,0-0.3h0c0,0.1,0,0.1,0,0.2C398.9,294.5,399.6,296.9,400.4,299.1z"/>
			<path class="st0" d="M401.3,308.1c0-0.5,0-1.1,0-1.8c0-0.5,0-1,0-1.4C401.4,306.1,401.4,307.1,401.3,308.1z"/>
			<path class="st0" d="M401.1,361.1c0,0.5,0,1-0.1,1.5c0-0.3,0-0.6,0-1c0-0.6,0-1.2,0-1.7C401.1,360.3,401.1,360.7,401.1,361.1z"/>
			<path class="st0" d="M400,299.1c1.1,2.7,1.3,3.4,1.3,5.8c-0.2-1.6-0.7-3.5-1.6-5.9c-0.9-2.6-1.4-4.5-1.4-5.7c0-0.2,0-0.4,0-0.6h0
				c0,0.3,0,0.7,0.1,1.2C398.5,295,399.2,297.3,400,299.1z"/>
			<path class="st0" d="M398.3,352c1.8,2.5,2.6,4.9,2.8,7.9c-0.6-6.2-5-11.8-11-13.8C393.5,347.1,396.2,349,398.3,352z"/>
			<path class="st0" d="M390.1,291.7c1.3,1.3,1.7,3.3,1.7,8c-0.1,6.4-1.7,11.5-4.1,13.1l0.8-0.9c0.6-0.6,1.4-2.4,2-4
				c0.9-2.6,1-3.4,1-8.2c0-0.2,0-0.3,0-0.5c0-7.3,0.2-6.9-9.6-11.5c-6.7-3.1-8.3-5.3-8.6-11.9c-0.2-4.1,0.4-6.3,3.2-11.2
				c2-3.5,2.6-5.3,2.2-6.8c-0.8-3.2-12-12.5-15.1-12.5c-0.8,0-1.6,0.6-3.9,2.8c-5,4.8-8.8,6.8-13.5,6.8c-5.2,0-8.2-2.2-12.3-9
				c-1.3-2.1-2.9-4.4-3.6-5c-1.3-1.2-1.4-1.2-3.7-1.1c-3.9,0.3-11.6,3.9-14.6,6.9c-1,1-1.2,1.4-1.2,2.8c0,0.9,0.4,3.2,0.9,5.1
				c1.6,6.6,0.9,11.2-2.3,14.7c-3.2,3.5-7.9,5.1-15.9,5.6c-2.1,0.1-4.1,0.4-4.5,0.6c-1.9,1-4.2,9-4.2,15c-0.1,4.4-0.4,4,8.4,8.4
				c8,3.9,10.5,6.9,10.9,12.7c0.2,3.5-0.2,5.5-2.5,10.5c-1.5,3.2-2.3,5.1-2.5,6.4c0.2-1.4,0.8-3,2.1-5.9c2.3-5,3.2-8.2,2.9-11
				c-0.4-3.5-1.2-5.2-3.7-7.7c-2-2-3-2.7-8.6-5.4c-7.6-3.7-7.4-3.6-7.1-9.3c0.4-6.3,2.7-13.4,4.5-13.8c0.4-0.1,3.1-0.4,5.9-0.7
				s6.1-0.9,7.4-1.2c8.5-2.6,11.7-9.4,9.1-18.9c-0.4-1.6-0.8-3.8-0.8-4.9c0-1.8,0.1-2,1.6-3.3c2.3-2,6.4-4.3,10.4-5.7
				c6.3-2.2,7.2-1.7,11.8,6c3.6,6,6.8,8.3,11.7,8.3c4.4,0,8-1.8,12.8-6.3c1.8-1.7,3.7-3.2,4.1-3.3c1.8-0.5,7.9,3.7,12.7,8.7
				c4,4.2,4.1,5,0.8,10.8c-2.8,5-3.3,6.4-3.3,10.2c0,4.7,0.8,6.9,3.3,9.5c1.7,1.7,2.7,2.3,7.3,4.3
				C386.8,289.8,389.6,291.2,390.1,291.7z"/>
			<path class="st0" d="M381.8,287.6c9.9,4.7,9.7,4.2,9.6,11.5h0c0-4.2-0.6-6.4-1.9-7.4c-0.5-0.4-3.3-1.8-6.1-3.1
				c-2.9-1.3-5.7-2.8-6.3-3.3c-3.9-3-5.5-10.4-3.4-15.9c0.4-1,1.5-3.2,2.4-4.9c2.3-4.1,2.8-5.6,2.1-7.1c-1.6-3.4-10.9-11.1-14.4-12
				c-0.8-0.2-1.3,0.1-3.9,2.6c-3.6,3.5-6.7,5.5-9.8,6.4c-4.6,1.4-9.6,0.3-12.4-2.6c-0.6-0.6-2.2-3-3.6-5.2c-4.1-6.5-5.3-7.5-8.9-6.7
				c-3.8,0.8-9.9,3.9-13,6.4c-1.7,1.4-1.8,2.6-0.7,7.3c1.8,7.4,1.1,12-2.3,15.8c-2.9,3.2-7.1,4.7-15.2,5.5c-2.5,0.2-4.8,0.5-5.1,0.7
				c-1.7,0.9-3.8,7.7-4.1,13.5c-0.1,2.8-0.1,4.1,0.3,4.7c0.6,1,1.8,1.8,8.3,5c6.1,3,8.5,5.1,9.8,8.5c1.8,4.7,1.3,8.4-2.1,15.5
				c-2.2,4.6-2.6,7.1-1.4,8.6c0.4,0.5,2.1,1.9,3.6,3.1c1.6,1.2,4,3.2,5.3,4.5s3,2.5,3.8,2.7c1.9,0.6,3.6-0.3,7.6-4
				c1.8-1.7,4.2-3.4,5.2-4c3.4-1.7,7.9-1.4,11.9,0.6c2.9,1.5,4.3,3.1,6.7,7.7c1.2,2.4,2.6,4.6,3.2,5.1c0.4,0.4,0.8,0.6,1.3,0.7
				c0.1,0.1,0.2,0.2,0.3,0.2c0,0,0.1,0,0.3-0.1c0.9,0.1,2.1-0.2,4.2-0.8c4.3-1.2,9.9-4,11.3-5.6l0.9-1v0.6l-1.2,1
				c-2.3,2-7.5,4.3-12.3,5.5c-3.5,0.9-3.5,0.9-4.9-0.4c-0.7-0.6-2.2-3-3.4-5.4c-2.4-4.8-3.5-5.9-7-7.6c-1.6-0.8-2.2-1-4-1.1
				c-0.7-0.1-1.5-0.2-2.2-0.2c-0.9,0-1.7,0.1-2.4,0.2c-1.5,0.1-2,0.3-3.1,0.9c-0.9,0.5-3.3,2.4-5.3,4.3c-5.4,4.8-6.6,4.9-11.1,0.6
				c-1.6-1.5-4.1-3.6-5.6-4.7c-1.5-1.1-3-2.6-3.4-3.2c-0.4-0.6-0.6-1.1-0.7-1.7c0-0.2,0-0.5,0-0.9c0-0.1,0-0.2,0-0.3
				c0.3-1.3,1-3.1,2.5-6.4c2.3-5,2.8-7,2.5-10.5c-0.4-5.8-3-8.7-10.9-12.7c-8.8-4.3-8.4-4-8.4-8.4c0.1-6,2.3-14,4.2-15
				c0.3-0.2,2.3-0.4,4.5-0.6c8-0.5,12.7-2.2,15.9-5.6c3.2-3.6,4-8.1,2.3-14.7c-0.5-1.9-0.9-4.2-0.9-5.1c0-1.4,0.2-1.8,1.2-2.8
				c3-3,10.7-6.6,14.6-6.9c2.3-0.2,2.3-0.1,3.7,1.1c0.8,0.7,2.4,2.9,3.6,5c4.1,6.8,7.1,9,12.3,9c4.7,0,8.5-2,13.5-6.8
				c2.2-2.2,3.1-2.8,3.9-2.8c3,0,14.3,9.3,15.1,12.5c0.4,1.5-0.2,3.3-2.2,6.8c-2.8,4.9-3.4,7-3.2,11.2
				C373.6,282.3,375.1,284.5,381.8,287.6z"/>
			<path class="st0" d="M391.5,299.1c0,0.2,0,0.3,0,0.5c0,4.7-0.1,5.5-1,8.2c-0.6,1.7-1.4,3.4-2,4l-0.8,0.9
				c-0.1,0.1-0.3,0.2-0.4,0.2l-5.7,0.2c-5.7,0.2-6,0.2-8.2,1.3c-3.7,1.8-5.8,4.4-7.2,9c-0.4,1.4-0.6,3.6-0.6,9.8l0,4.3l0-0.2
				c-0.3-4.2-0.3-9.6,0.1-12.1c0.8-5.1,3.3-8.8,7-10.7c2.7-1.4,3.7-1.5,9.4-1.6c4.8,0,5-0.1,5.9-0.9c2-1.9,3.4-6.9,3.5-12.4
				C391.5,299.5,391.5,299.3,391.5,299.1L391.5,299.1z"/>
			<path class="st0" d="M391.4,293c1.4,3.1,1.2,10.1-0.4,15.1c-0.9,2.8-1.8,4.2-3.2,5.1c-1,0.6-1.5,0.7-4.8,0.6
				c-6.3-0.3-9.5,0.6-12.5,3.3c-3.6,3.3-4.5,7.3-4.2,17.3l0.2,6.6l-1.5,1.4c-2.6,2.5-12.2,6.5-15.7,6.5c-1.2,0-1.7-0.2-2.8-1.4
				c-0.7-0.8-2-2.9-2.9-4.6c-0.9-1.8-2-3.9-2.6-4.6c-2.2-2.9-7.4-5-11.5-4.6c-2.9,0.3-5.1,1.5-8.1,4.2c-6.6,6.2-8.1,6.4-13.1,1.7
				c-1.4-1.3-3.8-3.4-5.4-4.6c-5.6-4.3-5.7-4.6-1.2-14.7c2.5-5.6,2.6-9.9,0.5-13.9c-1.4-2.7-3.7-4.3-10.3-7.7
				c-3.3-1.7-6.4-3.4-6.7-3.8c-0.9-0.9-1.1-4.9-0.5-8.8c0.6-4,2.3-9.2,3.4-10.4c0.9-1,1.2-1,5.5-1.4c8.3-0.7,12.4-2.1,15.4-5.2
				c3.3-3.5,3.9-8,2.2-15.1c-1.2-5-1.1-6.2,0.8-8c2.9-2.7,10.7-6.4,14.3-6.8c3.3-0.4,4.9,0.9,8.5,6.8c2.6,4.4,4.5,6.4,6.7,7.4
				c5.5,2.4,11.3,0.6,17.6-5.3c1.8-1.7,3.7-3.2,4.1-3.3c2.4-0.6,13,7.4,15.6,11.7c1.1,1.9,1,3.1-1.1,6.9c-2.9,5.5-3.1,6-3.7,8.4
				c-0.7,3-0.3,7,1.2,9.9c1.3,2.6,3.3,4,8.8,6.5C389.9,290.7,390.5,291.1,391.4,293z M391.8,299.6c0-4.7-0.4-6.6-1.7-8
				c-0.5-0.5-3.3-1.9-6.2-3.3c-4.6-2.1-5.6-2.7-7.3-4.3c-2.5-2.5-3.3-4.7-3.3-9.5c0-3.8,0.5-5.2,3.3-10.2c3.3-5.8,3.2-6.6-0.8-10.8
				c-4.8-5-10.9-9.1-12.7-8.7c-0.5,0.1-2.3,1.6-4.1,3.3c-4.9,4.6-8.5,6.3-12.8,6.3c-4.9,0-8.1-2.3-11.7-8.3c-4.6-7.6-5.6-8.1-11.8-6
				c-4,1.4-8.1,3.7-10.4,5.7c-1.5,1.4-1.6,1.5-1.6,3.3c0,1,0.4,3.2,0.8,4.9c2.6,9.5-0.6,16.3-9.1,18.9c-1.3,0.4-4.6,0.9-7.4,1.2
				s-5.4,0.6-5.9,0.7c-1.8,0.4-4.1,7.5-4.5,13.8c-0.3,5.7-0.5,5.6,7.1,9.3c5.5,2.7,6.5,3.4,8.6,5.4c2.5,2.5,3.3,4.2,3.7,7.7
				c0.3,2.7-0.6,5.9-2.9,11c-1.3,2.9-1.9,4.5-2.1,5.9c-0.1,0.5-0.1,0.9-0.1,1.2c0,1.1,0.2,1.4,1,2.4c0.6,0.7,2.1,2,3.3,2.9
				c1.2,0.9,3.4,2.8,5,4.3c4.7,4.4,6.2,4.4,11.1-0.1c4.1-3.7,6.3-5.2,8.8-5.7c0.6,0,1.4,0,2.4,0c0.9,0,1.6,0,2.1,0
				c3.1,0.5,6.2,2.1,8,4c0.6,0.7,2.1,3.1,3.2,5.2c1.1,2.1,2.5,4.4,3.1,5c1,1,1.2,1.1,3.1,0.9c4.1-0.4,12.4-4,14.9-6.4l1.3-1.3
				l-0.2-3.1c-1.1-13.5,1-20,7.4-22.9c2.5-1.2,5.2-1.5,9.2-1.3c2.6,0.2,3.7,0.1,4.7-0.3c0,0,0.1,0,0.1-0.1l0.2,0l0.2-0.2
				C390.1,311.1,391.7,306.1,391.8,299.6z"/>
			<path class="st0" d="M391.5,299.1c0,0.2,0,0.3,0,0.5c-0.1,5.6-1.4,10.5-3.5,12.4c-0.9,0.8-1.1,0.9-5.9,0.9
				c-5.6,0-6.6,0.2-9.4,1.6c-3.7,1.9-6.2,5.6-7,10.7c-0.4,2.5-0.5,8-0.1,12.1l0,0.2v0l0,3.1l-0.9,1c-1.4,1.6-7,4.4-11.3,5.6
				c-2.1,0.6-3.3,0.9-4.2,0.8c0.5-0.1,1.5-0.4,2.7-0.7c5.2-1.3,10.3-3.7,12.6-5.9l0.9-0.9l0-1.2c0,0,0,0,0,0c0-0.1,0-0.2,0-0.4
				c0,0,0,0,0,0l-0.2-4.9c-0.2-7.5,0.2-10.9,2-14.4c1.3-2.5,4-5,6.6-6c1.7-0.7,2.9-0.8,7.7-1c5.3-0.2,5.7-0.2,6.5-1
				c2.9-2.7,4.5-14.4,2.5-18.4c-0.7-1.5-1.4-1.9-9.2-5.5c-5.7-2.6-7.7-5.2-8.5-10.9c-0.6-4.4-0.1-6.4,4-13.9
				c2.1-3.9,2.1-4.9,0.3-7.1c-3.7-4.7-11.9-10.7-13.8-10.1c-0.4,0.1-2.1,1.5-3.9,3.2c-5,4.8-10.5,7-15.3,6.2
				c-4.4-0.8-6.6-2.7-10.3-8.7c-2.9-4.7-4.6-6.4-6.5-6.4c-4.4,0-15.4,5.7-16,8.3c-0.3,1,0,2.6,1.2,8.3c0.2,1.1,0.4,1.9,0.5,2.6
				c0,0.8,0,1.6,0,2.3c0,0.3-0.1,0.6-0.1,1c-1,6.2-4.7,9.9-11.4,11.7c-1.2,0.3-4.5,0.8-7.3,1.1c-5.9,0.6-5.6,0.4-7,4.1
				c-1.9,5-2.7,12.9-1.5,14.7c0.4,0.6,2.7,1.9,6.4,3.8c3.2,1.6,6.5,3.5,7.5,4.2c3.3,2.5,5,6.2,5,10.7c0,3.1-0.6,5.2-3.1,10.5
				c-1.4,3.1-2,4.6-2,5.8c0,1.9,0.3,2.4,4,5.2c1.4,1.1,3.8,3.1,5.3,4.5c2.7,2.6,4.5,3.5,6.1,3.1c0.5-0.1,1.9-1.1,3-2.1
				c7.3-6.3,7.4-6.3,10.7-6.9c2.4-0.5,5.8,0,8.4,1.3c3.1,1.4,5.1,3.6,7.3,8.1c1.2,2.5,2.4,4.4,3.2,5c0.4,0.4,0.9,0.7,1.1,0.9
				c-0.5-0.1-0.9-0.4-1.3-0.7c-0.6-0.5-2-2.7-3.2-5.1c-2.4-4.6-3.7-6.2-6.7-7.7c-4.1-2.1-8.5-2.3-11.9-0.6c-1,0.5-3.4,2.3-5.2,4
				c-4,3.7-5.8,4.6-7.6,4c-0.7-0.2-2.4-1.5-3.8-2.7s-3.8-3.3-5.3-4.5c-1.6-1.2-3.2-2.6-3.6-3.1c-1.2-1.6-0.8-4,1.4-8.6
				c3.4-7,3.9-10.8,2.1-15.5c-1.3-3.4-3.7-5.6-9.8-8.5c-6.5-3.2-7.7-3.9-8.3-5c-0.3-0.6-0.4-1.9-0.3-4.7c0.3-5.8,2.3-12.6,4.1-13.5
				c0.3-0.1,2.6-0.5,5.1-0.7c8.1-0.8,12.3-2.3,15.2-5.5c3.5-3.8,4.2-8.5,2.3-15.8c-1.2-4.7-1.1-5.9,0.7-7.3c3.1-2.5,9.2-5.5,13-6.4
				c3.6-0.8,4.8,0.1,8.9,6.7c1.4,2.2,3,4.5,3.6,5.2c2.8,2.9,7.8,4,12.4,2.6c3.1-0.9,6.2-2.9,9.8-6.4c2.6-2.5,3-2.8,3.9-2.6
				c3.4,0.8,12.7,8.6,14.4,12c0.7,1.5,0.3,3-2.1,7.1c-1,1.7-2.1,3.9-2.4,4.9c-2.1,5.5-0.5,12.9,3.4,15.9c0.6,0.5,3.5,2,6.3,3.3
				c2.9,1.3,5.6,2.7,6.1,3.1C390.9,292.7,391.5,294.9,391.5,299.1z"/>
			<path class="st0" d="M385.4,290c5.3,2.3,5.7,3.2,5.5,10.5c-0.2,4.8-0.9,8-2.3,10.2c-0.5,0.8-0.9,1.2-1.7,1.5l0.9-1
				c2.9-3.2,4.1-15,1.9-18.3c-0.3-0.5-1.9-1.4-3.6-2.2c-1.7-0.8-4.2-1.9-5.6-2.6c-3.6-1.7-5.4-3.2-6.6-5.8c-2.7-5.6-2.3-11,1.4-17.4
				c2.2-3.9,2.9-5.7,2.7-6.8c-0.3-1.1-5.6-6.5-8.6-8.7c-2-1.5-5.2-3.3-5.8-3.3c-0.1,0-1.5,1.2-3.1,2.7c-3,2.9-4,3.7-6.6,5.1
				c-5.9,3.3-13.2,2.5-17-1.9c-0.6-0.7-2.2-3-3.5-5.2c-3.3-5.3-4-6-6.5-6c-3.4,0-10.9,3.5-14.1,6.5c-0.9,0.9-1.2,1.2-1.2,1.9h0
				c0-1.3,0.2-1.5,1.9-2.8c3.8-3,10.5-5.9,13.7-5.9c2.3,0,3.1,0.7,6.4,6c3.2,5.1,4.4,6.5,6.9,7.8c2.8,1.4,7.1,1.6,10.5,0.5
				c2.9-1,6.8-3.5,9.4-6.3c2.9-3,3-3,5.4-1.8c3.9,2,10.3,7.6,11.8,10.3c0.8,1.3,0.8,1.6,0.5,2.8c-0.2,0.8-1.3,3-2.4,5.1
				c-2.7,4.9-3.3,7-3,11C373,283.2,375,285.4,385.4,290z"/>
			<path class="st0" d="M390.9,300.5c0.3-7.3-0.2-8.2-5.5-10.5c-10.5-4.6-12.5-6.7-12.9-14.2c-0.2-4.1,0.3-6.1,3-11
				c1.1-2,2.2-4.3,2.4-5.1c0.3-1.2,0.3-1.5-0.5-2.8c-1.6-2.7-8-8.2-11.8-10.3c-2.4-1.3-2.5-1.2-5.4,1.8c-2.6,2.7-6.4,5.3-9.4,6.3
				c-3.4,1.1-7.6,0.9-10.5-0.5c-2.5-1.3-3.7-2.7-6.9-7.8c-3.3-5.4-4.1-6-6.4-6c-3.2,0-9.9,2.8-13.7,5.9c-1.7,1.3-1.9,1.5-1.9,2.8
				c0,0.1,0,0.2,0,0.3c0,0.9,0.3,3,0.8,4.6c0.4,1.7,0.7,3.4,0.8,5.2c-0.1-0.7-0.2-1.5-0.5-2.6c-1.3-5.7-1.5-7.3-1.2-8.3
				c0.7-2.6,11.6-8.3,16-8.3c1.9,0,3.7,1.7,6.5,6.4c3.6,6,5.9,7.9,10.3,8.7c4.8,0.8,10.2-1.3,15.3-6.2c1.7-1.6,3.4-3.1,3.9-3.2
				c2-0.5,10.1,5.5,13.8,10.1c1.8,2.3,1.8,3.3-0.3,7.1c-4,7.5-4.6,9.5-4,13.9c0.8,5.7,2.8,8.3,8.5,10.9c7.8,3.6,8.5,4,9.2,5.5
				c2,4.1,0.4,15.7-2.5,18.4c-0.8,0.8-1.2,0.8-6.5,1c-4.8,0.2-6,0.3-7.7,1c-2.6,1-5.3,3.5-6.6,6c-1.8,3.5-2.2,6.9-2,14.4l0.2,4.9
				c0-0.1,0-0.2,0-0.3c-0.1-0.7-0.3-3.2-0.4-5.7c-0.6-11.5,2.9-18,10.9-20.2c0.8-0.2,2.8-0.4,4.9-0.5c0.5,0,1,0,1.5,0
				c2,0,3.2,0,4.1-0.2l0.5,0l0.1-0.1c0.8-0.2,1.2-0.7,1.7-1.5C390,308.5,390.7,305.3,390.9,300.5z"/>
			<path class="st0" d="M389.7,346c0.1,0,0.2,0.1,0.2,0.1c-0.2-0.1-0.4-0.1-0.6-0.2C389.5,345.9,389.7,345.9,389.7,346z"/>
			<path class="st0" d="M389.7,292.9c2.2,3.3,1,15.1-1.9,18.3l-0.9,1c-0.2,0.1-0.4,0.1-0.6,0.1l-5.4,0.2c-0.1,0-0.2,0-0.3,0
				c-5.2,0.2-5.8,0.3-7.6,1.1c-6.7,3.1-9.1,9.5-8.3,22l0.3,4.7l-1.4,1.3c-2.5,2.2-9.6,5.2-13.6,5.8c-1.7,0.2-1.8,0.2-2.9-1.1
				c-0.6-0.7-1.8-2.8-2.7-4.6c-1.7-3.5-3.7-6-6-7.3c-2.4-1.4-5.4-2.2-8-2.2c-4,0-6.2,1-10.3,4.8c-4.7,4.3-4.8,4.3-6.5,4.3
				c-1.6,0-1.8-0.1-5.7-3.8c-0.8-0.8-2.7-2.3-4.2-3.5c-1.5-1.1-3-2.4-3.4-2.8c-1.1-1.2-0.6-3.5,1.6-8.3c3-6.5,3.6-9.7,2.6-13.6
				c-1.3-5.1-3.7-7.5-11-11c-7.3-3.6-7.6-3.8-8.1-5.9c-0.1-0.6-0.2-1.2-0.2-1.7c0-0.4,0.1-0.8,0.2-1.2c0.2-0.6,0.3-1.7,0.3-2.3
				c0-1.8,1.3-7,2.3-9l0.9-1.8c0,0,0,0,0.1,0l2.6-0.2c4.4-0.3,8.5-0.9,10.5-1.5c6.6-1.9,10.4-6.2,11.1-12.6c0.2-2.1,0-4.1-1.1-8.2
				c-0.3-1.2-0.7-2.9-0.8-3.8c0-0.3-0.1-0.6-0.1-0.9c0-0.7,0.3-1,1.2-1.9c3.2-3,10.7-6.5,14.1-6.5c2.4,0,3.1,0.6,6.5,6
				c1.4,2.2,3,4.5,3.5,5.2c3.8,4.4,11.1,5.2,17,1.9c2.5-1.4,3.5-2.2,6.6-5.1c1.6-1.5,3-2.7,3.1-2.7c0.6,0,3.8,1.8,5.8,3.3
				c3,2.2,8.3,7.6,8.6,8.7c0.3,1.1-0.4,2.9-2.7,6.8c-3.7,6.4-4.1,11.8-1.4,17.4c1.3,2.6,3,4.1,6.6,5.8c1.4,0.7,4,1.8,5.6,2.6
				C387.8,291.4,389.4,292.4,389.7,292.9z M359.8,280v-5.1c0-3.5-0.1-5.2-0.4-5.5c-0.6-0.6-38.8-0.6-39.4,0
				c-0.3,0.3-0.4,2.2-0.4,6.5c0,5,0.1,6.1,0.6,6.6c0.5,0.5,2,0.6,10.9,0.6c5.7,0,10.3,0.1,10.3,0.1c0,0.1-1,1.7-2.2,3.5
				c-2.5,3.8-5.7,9.7-7.1,13.6c-1.6,4.3-4.3,15.5-4.3,18.3c0,2.1-0.2,2.3,4.8,2.3c0.7,0,1.6,0,2.6,0c0.4,0,0.7,0,1,0
				c4.4,0,6-0.1,6.2-0.4c0.2-0.2,0.6-2.5,0.9-5c1.9-14.1,6.5-24.6,14.6-33.3L359.8,280z"/>
			<path class="st0" d="M389.4,345.9c-0.8-0.2-2.5-0.4-4.1-0.5c-4.3-0.4-4.9-0.8-5.8-3.4c-0.3-0.9-0.5-2.9-0.6-5.3
				c0.2,2.7,0.6,5.2,1.2,6.6c0.5,1.3,1.6,1.6,5.8,2C387.2,345.4,388.3,345.6,389.4,345.9z"/>
			<path class="st0" d="M387.7,312.7l-0.2,0.2l-0.2,0C387.5,312.9,387.6,312.8,387.7,312.7z"/>
			<path class="st0" d="M387.3,313c0,0-0.1,0-0.1,0.1c-1,0.4-2.1,0.5-4.7,0.3c-4-0.2-6.7,0.1-9.2,1.3c-6.3,2.9-8.4,9.4-7.4,22.9
				l0.2,3.1l-1.3,1.3c-2.5,2.4-10.8,6-14.9,6.4c-1.9,0.2-2,0.1-3.1-0.9c-0.6-0.6-2-2.8-3.1-5c-1.1-2.1-2.5-4.5-3.2-5.2
				c-1.8-1.9-4.9-3.5-8-4c1.7,0.1,2.4,0.3,4,1.1c3.5,1.7,4.6,2.8,7,7.6c1.2,2.4,2.7,4.8,3.4,5.4c1.4,1.3,1.5,1.3,4.9,0.4
				c4.8-1.2,10-3.6,12.3-5.5l1.2-1v-0.6l0.2-0.3l-0.2-2.8v0l0-4.3c0-6.3,0.1-8.4,0.6-9.8c1.4-4.6,3.5-7.2,7.2-9
				c2.3-1.1,2.5-1.1,8.2-1.3L387.3,313z"/>
			<path class="st0" d="M386.9,312.1l-0.1,0.1l-0.5,0C386.5,312.2,386.7,312.2,386.9,312.1z"/>
			<path class="st0" d="M380.9,312.4l5.4-0.2c-0.9,0.1-2.1,0.1-4.1,0.2c-0.5,0-1,0-1.5,0C380.8,312.4,380.8,312.4,380.9,312.4z"/>
			<path class="st0" d="M378.9,331c0,1.8,0,3.8,0.1,5.6C378.8,334.7,378.8,332.8,378.9,331z"/>
			<path class="st0" d="M380.7,312.4c-2.2,0.1-4.1,0.2-4.9,0.5c-8,2.1-11.5,8.7-10.9,20.2c0.1,2.4,0.3,5,0.4,5.7c0,0.1,0,0.2,0,0.3
				c0,0,0,0,0,0l0,0.4c0,0,0,0,0,0c0,0.3-0.1,0.5-0.2,0.8l-0.3-4.7c-0.8-12.5,1.5-18.9,8.3-22C374.9,312.7,375.5,312.6,380.7,312.4z
				"/>
			<polygon class="st0" points="365.6,337.5 365.8,340.3 365.6,340.6 			"/>
			<path class="st0" d="M365.3,339.5l0,1.2l-0.9,0.9c-2.3,2.2-7.4,4.5-12.6,5.9c-1.1,0.3-2.2,0.5-2.7,0.7c-0.2,0-0.4,0-0.6-0.1
				c-0.3-0.2-0.7-0.5-1.1-0.9c-0.7-0.7-1.9-2.5-3.2-5c-2.2-4.5-4.2-6.7-7.3-8.1c-2.7-1.2-6-1.7-8.4-1.3c-3.3,0.6-3.4,0.7-10.7,6.9
				c-1.2,1-2.5,1.9-3,2.1c-1.6,0.4-3.4-0.5-6.1-3.1c-1.4-1.4-3.8-3.4-5.3-4.5c-3.7-2.8-4-3.3-4-5.2c0-1.2,0.6-2.7,2-5.8
				c2.5-5.3,3.1-7.4,3.1-10.5c0-4.5-1.7-8.2-5-10.7c-0.9-0.7-4.3-2.6-7.5-4.2c-3.7-1.9-6-3.2-6.4-3.8c-1.2-1.8-0.4-9.7,1.5-14.7
				c1.4-3.6,1.1-3.5,7-4.1c2.9-0.3,6.2-0.8,7.3-1.1c6.7-1.8,10.3-5.5,11.4-11.7c0.1-0.3,0.1-0.7,0.1-1c-0.1,1.7-0.3,3.3-0.8,4.5
				c-2.3,5.8-8.3,8.9-18.7,9.6c-2.5,0.2-3.6,0.2-4.3,0.6l0,0l0,0c-0.5,0.3-0.8,0.9-1.2,1.9c-1.5,3.3-2.5,8.7-2.5,12.4
				c0,1.8,0.2,3.2,0.7,3.7c0.4,0.4,3.2,2,6.4,3.5c3.1,1.5,6.5,3.4,7.4,4.2c3.5,2.7,5.2,6.9,4.9,11.6c-0.2,3-0.9,5-3.2,10
				c-0.9,1.9-1.7,4.2-1.8,5.1c-0.2,2,0.4,2.7,4.1,5.6c1.5,1.1,3.4,2.8,4.3,3.7c2.4,2.5,4.3,3.7,5.8,3.7c1.4,0,2.1-0.5,7.7-5.3
				c3.3-2.9,5.4-3.8,9-3.8c6.4,0,10.6,2.8,13.8,9.2c1,2.1,2.4,4.3,3,5c1.1,1.2,1.2,1.3,2.7,1c4.5-0.7,12.5-4.2,14.4-6.4
				c0.3-0.4,0.6-0.7,0.7-1C365.3,340,365.3,339.8,365.3,339.5z"/>
			<path class="st0" d="M365.3,339.1c0,0.1,0,0.3,0,0.4L365.3,339.1z"/>
			<path class="st0" d="M363.7,341.5l1.4-1.3c-0.2,0.3-0.4,0.6-0.7,1c-1.9,2.2-9.9,5.7-14.4,6.4c-1.5,0.2-1.6,0.2-2.7-1
				c-0.6-0.7-2-3-3-5c-3.2-6.4-7.3-9.1-13.8-9.2c-3.6,0-5.7,0.9-9,3.8c-5.6,4.9-6.2,5.3-7.7,5.3c-1.6,0-3.4-1.2-5.8-3.7
				c-0.9-0.9-2.8-2.6-4.3-3.7c-3.7-2.8-4.3-3.6-4.1-5.6c0.1-0.9,0.9-3.2,1.8-5.1c2.4-5,3-7,3.2-10c0.3-4.6-1.4-8.9-4.9-11.6
				c-0.9-0.7-4.3-2.6-7.4-4.2c-3.1-1.5-6-3.1-6.4-3.5c-0.5-0.5-0.7-1.9-0.7-3.7h0c0,0.5,0.1,1.1,0.2,1.7c0.5,2.1,0.8,2.3,8.1,5.9
				c7.3,3.6,9.6,5.9,11,11c1,4,0.5,7.1-2.6,13.6c-2.2,4.8-2.7,7.1-1.6,8.3c0.4,0.4,1.9,1.7,3.4,2.8c1.5,1.1,3.4,2.7,4.2,3.5
				c3.9,3.7,4,3.8,5.7,3.8c1.7,0,1.8-0.1,6.5-4.3c4.1-3.7,6.4-4.8,10.3-4.8c2.7,0,5.6,0.8,8,2.2c2.3,1.3,4.3,3.8,6,7.3
				c0.9,1.8,2.1,3.9,2.7,4.6c1.1,1.3,1.1,1.3,2.9,1.1C354.1,346.8,361.2,343.7,363.7,341.5z"/>
			<path class="st0" d="M359.8,274.9v5.1l-2,2.2c-8.1,8.7-12.7,19.2-14.6,33.3c-0.3,2.5-0.8,4.7-0.9,5c-0.2,0.3-1.9,0.4-6.2,0.4
				c2.7,0,5-0.2,5.4-0.3c0.9-0.3,1.2-1.7,1.9-7.7c0.3-3,2.1-9.6,3.7-13.7c2.6-6.6,6-12.2,10.3-16.8l2.3-2.4l0-1v-4.1
				c0-1.9,0-3.2-0.2-4.1l0-1.3h-2.1c-2.5-0.1-7.8-0.2-17.4-0.2c-10.7,0-15.4,0-17.6,0.2h-2.2l0,1.4c-0.1,0.8-0.2,2.2-0.2,4.8
				c0,1.1,0,2.1,0.1,3c0,2.5,0.1,3.3,0.4,3.6c0.3,0.3,3.8,0.4,11,0.5l10.5,0.1l-2.7,4.1c-6.1,9.2-9.6,18.7-11,29.6
				c-0.5,3.8-0.7,4.2,4.2,4.2c-5,0-4.8-0.2-4.8-2.3c0-2.8,2.6-14,4.3-18.3c1.5-3.9,4.6-9.8,7.1-13.6c1.2-1.8,2.2-3.4,2.2-3.5
				c0-0.1-4.6-0.1-10.3-0.1c-8.9,0-10.4-0.1-10.9-0.6c-0.5-0.5-0.6-1.6-0.6-6.6c0-4.2,0.1-6.2,0.4-6.5c0.6-0.6,38.8-0.6,39.4,0
				C359.7,269.7,359.8,271.4,359.8,274.9z"/>
			<path class="st0" d="M359.5,278.9l0,1l-2.3,2.4c-4.3,4.6-7.7,10.1-10.3,16.8c-1.6,4-3.3,10.6-3.7,13.7c-0.7,6.1-1,7.4-1.9,7.7
				c-0.4,0.2-2.7,0.3-5.4,0.3c-0.3,0-0.7,0-1,0c-1,0-1.8,0-2.6,0c-4.9,0-4.6-0.4-4.2-4.2c1.3-11,4.8-20.4,11-29.6l2.7-4.1l-10.5-0.1
				c-7.2-0.1-10.7-0.2-11-0.5c-0.3-0.2-0.4-1.1-0.4-3.6c0.1,1.6,0.2,2.7,0.3,2.9c0.3,0.6,0.8,0.7,11,0.7c0.9,0,1.8,0,2.6,0
				c1.3,0,2.5,0,3.6,0c0.6,0,1.2,0,1.7,0c0.2,0,0.4,0,0.6,0c0.5,0,1,0,1.4,0c0.2,0,0.3,0,0.4,0c0,0,0.1,0,0.1,0c0.2,0,0.4,0,0.4,0.1
				c0.1,0.1-0.9,1.9-2.4,4c-2.9,4.3-6.3,10.8-7.7,14.7c-1.1,3.2-2.7,9.8-3.5,14.6c-0.5,2.9-0.5,3.7-0.2,4.1c0.4,0.4,1.6,0.5,6.9,0.5
				c5.8,0,6.5-0.1,6.7-0.6c0.2-0.3,0.4-1.7,0.6-3.1c0.7-7.1,2.8-15.1,5.6-21.1c2.6-5.6,5-9.2,9.2-13.8l2.1-2.4V278.9z"/>
			<path class="st0" d="M359.5,278.9v0.6l-2.1,2.4c-4.2,4.7-6.6,8.2-9.2,13.8c-2.8,6.1-4.9,14-5.6,21.1c-0.1,1.3-0.4,2.7-0.6,3.1
				c-0.3,0.6-1,0.6-6.7,0.6c-5.3,0-6.5-0.1-6.9-0.5c-0.3-0.4-0.3-1.2,0.2-4.1c0.8-4.9,2.4-11.4,3.5-14.6c1.4-3.9,4.8-10.4,7.7-14.7
				c1.4-2.1,2.5-3.9,2.4-4c0,0-0.2,0-0.4-0.1c0.6,0,1,0.1,0.9,0.1c-0.1,0.1-1.4,2.2-3,4.6c-3.4,5.1-5.3,8.6-7,13
				c-2.2,5.8-4.9,17.9-4.2,19.5c0.1,0.3,0.6,0.5,2.7,0.5c0,0,0,0,0,0c2.5,0.2,6.3,0.1,8.5-0.1l2.1,0l0.8-5.3c0.9-6,1.5-8.7,2.8-12.6
				c2.7-8.2,6.5-14.6,11.8-20.4l2-2.1l0-2c0-0.7,0-1.5,0-2.6c0-2.3,0-3.5-0.2-4.1l0-1h-2.7c-2.9-0.1-8.5-0.2-16.7-0.2
				c-10.3,0-14.9,0-17,0.2h-2.1c0.2-0.2,0.6-0.3,1.8-0.3h17.4h17.5c1.2,0.1,1.7,0.1,1.8,0.2c0.1,0.1,0.2,0.4,0.3,1l0.1,3.9
				L359.5,278.9z"/>
			<path class="st0" d="M359.5,274.9v4.1l-0.1-4.2l-0.1-3.9C359.4,271.6,359.5,273,359.5,274.9z"/>
			<path class="st0" d="M359.3,269.5l0,1.3c-0.1-0.6-0.2-0.9-0.3-1c-0.1-0.1-0.7-0.2-1.8-0.2H359.3z"/>
			<path class="st0" d="M359.1,277.6l0,2l-2,2.1c-5.4,5.8-9.1,12.2-11.8,20.4c-1.3,3.9-1.9,6.7-2.8,12.6l-0.8,5.3l-2.1,0
				c0.9-0.1,1.6-0.2,1.7-0.4c0,0,0,0,0,0h0.1l0-0.1c0.3-0.4,0.5-1.7,0.7-3.1c0.8-8.7,3.9-18.5,8.1-25.8c1.6-2.8,6.2-8.7,7.9-10.3
				c0.3-0.2,0.4-0.4,0.6-0.7c0,0,0,0,0,0C359,279.2,359.1,278.7,359.1,277.6z"/>
			<path class="st0" d="M359.1,274.9c0,1.1,0,2,0,2.6l-0.1-2.8l-0.1-3.9C359.1,271.5,359.1,272.6,359.1,274.9z"/>
			<path class="st0" d="M359,274.7l0.1,2.8c0,1.1-0.1,1.6-0.3,2l-0.1-4.7l-0.1-4.7l0.1,0c0.1,0.1,0.2,0.3,0.3,0.6L359,274.7z"/>
			<path class="st0" d="M358.9,269.9l0,1c-0.1-0.3-0.2-0.5-0.3-0.6c-0.1-0.1-0.1-0.1-0.2-0.1c-0.1-0.1-0.9-0.1-2.2-0.2H358.9z"/>
			<path class="st0" d="M358.8,279.6C358.8,279.6,358.8,279.6,358.8,279.6l-2.5,2.7c-4.8,5.1-8.7,12-11.3,19.8
				c-1.6,4.7-1.9,6-2.8,12.4l-0.7,5c0,0,0,0.1-0.1,0.1l-6.2,0.1c-4.6,0.1-5.9,0-6.3-0.3h6c4.5,0,6.1-0.1,6.2-0.4
				c0.1-0.2,0.5-2.6,0.9-5.4c1.4-9.5,4.4-18,9-25.2c1.6-2.5,5.3-7.1,6.7-8.4c0.7-0.6,0.7-1,0.7-5.2v-4.5l-18.6,0.1l-18.6,0.1
				l-0.1,5.3l-0.1,5.3h11c9.5,0,11.1,0.1,11.4,0.5c0.4,0.4,0.3,0.7-0.4,1.7c-7.8,10.5-12.2,21.4-13.8,34.1l-0.2,1.8
				c-0.1-0.1-0.1-0.1-0.1-0.2c-0.3-0.8,0.8-6.8,2.2-12.2c2-7.8,4.4-13,9.7-20.8c1.3-2,2.4-3.8,2.4-3.9c0,0-0.1-0.1-0.2-0.1
				c-0.1,0-0.4-0.1-0.8-0.1c-0.1,0-0.2,0-0.3,0c-1.7-0.1-4.7-0.2-9-0.2c-5.7,0-10.8-0.1-11.2-0.2c-0.8-0.2-0.8-0.2-0.7-5.9l0.1-5.6
				c0,0,0,0,0,0c0,0,0,0,0,0h18.9h18.9l0.1,4.7L358.8,279.6z"/>
			<path class="st0" d="M356.3,282.3l2.5-2.7c-0.1,0.2-0.3,0.4-0.6,0.7c-1.8,1.7-6.3,7.5-7.9,10.3c-4.3,7.3-7.4,17.1-8.1,25.8
				c-0.1,1.5-0.4,2.7-0.7,3.1l0.7-5c0.9-6.4,1.2-7.7,2.8-12.4C347.5,294.3,351.5,287.4,356.3,282.3z"/>
			<path class="st0" d="M358.6,270.2L358.6,270.2l-19,0h-18.9c0.2-0.2,0.6-0.3,1.7-0.3h17.1h16.6c1.3,0.1,2,0.1,2.2,0.2
				C358.5,270.1,358.6,270.2,358.6,270.2z"/>
			<path class="st1" d="M358.4,270.4v4.5c0,4.1-0.1,4.6-0.7,5.2c-1.4,1.2-5.1,5.9-6.7,8.4c-4.6,7.2-7.7,15.6-9,25.2
				c-0.4,2.7-0.8,5.1-0.9,5.4c-0.1,0.3-1.7,0.4-6.2,0.4h-6c0,0,0,0,0,0l0.2-1.8c1.6-12.7,6.1-23.6,13.8-34.1
				c0.7-0.9,0.8-1.2,0.4-1.7c-0.4-0.5-2-0.5-11.4-0.5h-11l0.1-5.3l0.1-5.3l18.6-0.1L358.4,270.4z"/>
			<path class="st0" d="M357.2,269.5h-17.5h-17.4c2.2-0.1,6.9-0.2,17.6-0.2C349.4,269.4,354.7,269.4,357.2,269.5z"/>
			<path class="st0" d="M356.3,269.9h-16.6h-17.1c2.1-0.1,6.7-0.2,17-0.2C347.7,269.7,353.4,269.8,356.3,269.9z"/>
			<path class="st0" d="M349.1,348.1c-0.2,0-0.3,0.1-0.3,0.1c0,0-0.1-0.1-0.3-0.2C348.7,348,348.9,348.1,349.1,348.1z"/>
			<path class="st0" d="M339.3,431.8c6.3,3.6,7.3,4.9,7.3,9.1c0,3.1-1.1,7-3.5,12.7c-2.5,6.1-4.2,8.5-7.1,9.9
				c-2.2,1.1-6.9,0.9-13.3-0.7c-4.7-1.2-5.8-1.3-8.2-1.2c-7.3,0.5-13.4,4.6-16.5,11.3c-1.7,3.5-2.3,6.1-2.5,10.6
				c-0.2,4.9,0.2,8,2.1,13.7c1.5,4.8,1.7,7,0.8,8.7c-1.2,2.4-6.1,6.3-10.9,8.7c-5.1,2.6-11.7,3.9-14.2,2.9c-1.5-0.6-4.1-3.6-6-6.7
				c-5.7-9.6-10.3-13.9-16.8-15.9c-4.1-1.2-9.8-0.5-14.2,1.8c-4.6,2.4-8.1,6.5-13.4,15.8c-1.6,2.8-3.2,5.5-3.6,5.8
				c-0.9,1-1.9,1.5-3.6,1.6c0.6,0,1-0.2,1.5-0.4c1.6-0.7,2.3-1.6,5.7-7.4c7.7-13.3,13.4-17.8,22.8-17.8c2.9,0,4,0.1,6,0.9
				c5.9,2.1,10,6.1,15.4,15.1c4.1,6.8,6,8,10.9,7.2c6.9-1.1,16.3-6.3,19.4-10.8c1.5-2.1,1.4-4.6-0.1-9c-1.7-4.8-2.1-7.5-2.2-12.8
				c0-5.7,0.7-8.8,2.8-12.9c2.4-4.7,6.1-7.9,11-9.6c4-1.4,7.8-1.4,13.4,0c11.3,2.9,15.2,1.8,18.7-5.3c2.9-5.8,5.2-13.3,5.2-16.7
				c0-3.7-1.3-5.3-6.4-8.2c-15-8.4-20.2-17.2-17.4-29c1.1-4.4,2.9-7.7,6.5-11.1c2.2-2.1,5-4.2,8.7-6.6c5.6-3.7,6.8-5.4,6.7-9.9
				c-0.1-4.7-2.2-10.2-6.3-16.4c-2.7-4-4.1-5.3-6.4-5.9c-2.1-0.5-4.6-0.1-10.3,1.8c-4.3,1.4-6.6,2-8.7,2.1c-1.3,0-2.6-0.1-4.2-0.5
				c-6.2-1.3-11.5-5.5-14.7-11.7c-3.2-6.1-3.6-10.9-1.5-19.3c1.6-6.5,1.8-8.2,1.3-10.7c-0.4-1.8-0.7-2.3-2.6-4.2
				c-4.5-4.4-13.3-7.9-20-7.9c-2.3,0-2.7,0.1-3.9,1c-1.9,1.4-3.5,3.6-6.4,9.2c-3.1,5.9-4,7.1-6.4,9.3c-5.1,4.7-12.5,6.5-19,4.7
				c-5.7-1.6-8.9-4.6-14.7-13.8c-5.1-8.2-8-10-13.5-8.4c-2.4,0.7-12.5,5.7-15.1,7.6c-1.1,0.8-2.4,2-3,2.8c-0.9,1.3-1,1.7-0.9,4.4
				c0,2.5,0.3,3.8,1.5,7.6c1.9,5.9,2.3,8.7,2,12.3c-0.6,7.4-4.3,14-10,17.8c-5.3,3.6-11.2,4.4-17.4,2.5c-6.7-2-7.8-2.3-9.9-2.3
				c-2.9,0-4.4,0.5-5.9,2.2c-1.6,1.7-2.1,2.9-4.7,9.3c-2.9,7.3-3.6,9.6-3.6,12.4c0,4.3,1.1,5.7,7.9,9.5c8.1,4.6,10.9,7.3,13.5,12.6
				c3.8,7.9,3,16.1-2.5,23.5c-2,2.7-6.4,6.6-9.6,8.6c-5.9,3.6-7.6,5.7-7.6,10c0,2.9,0.6,4.9,3.1,10.3c0.9,2,2.4,5.1,3.2,6.8
				c1.6,3.5,2.4,4.5,4.2,5.4c2.9,1.5,5.6,1.2,12.9-1.1c8.2-2.6,12.3-2.6,17.5-0.1c3.6,1.7,8.1,6.2,10,10c1.4,2.8,2.2,5.3,2.5,8
				c0,0.6,0,1.4,0,2.3c0,0.6,0,1.2,0,1.7c-0.2,2.2-0.6,4.7-1.4,7.6c-1.4,5.8-1.8,9-1.3,11.1c1.4,5.3,7.5,9,18.9,11.4
				c2,0.4,3,0.6,3.8,0.6c-1.4,0-3.2-0.3-5.5-0.8c-6.9-1.6-11.2-3.4-14.1-6.1c-3.8-3.4-4.3-7-2.1-15.5c1.2-4.6,1.3-5.5,1.3-9.8
				c0-4.1-0.1-5-0.8-7c-2.8-7.8-9.2-13.7-16.2-14.9c-3.4-0.6-6.6-0.1-12.5,1.7c-7.2,2.3-10.3,2.5-13.4,1c-1.5-0.8-3.2-3-4.4-6
				c-0.4-0.9-1.6-3.7-2.9-6.3c-3.2-6.9-3.9-10.2-2.8-13.4c0.8-2.2,2.3-3.8,5.9-6.1c5.3-3.4,7.8-5.5,10.1-8.4c4-5,5.5-9.1,5.5-14.6
				c0-4.3-0.6-6.7-2.5-10.5c-2.3-4.5-5.5-7.4-12.2-11.3c-6.2-3.6-8.1-5.2-8.7-7.6c-0.8-3.3-0.3-6,3.1-14.6
				c4.1-10.4,5.7-12.1,11-12.1c2.2,0,3.6,0.3,6.8,1.3c5.3,1.7,6.7,2,9.5,2c9.2,0,18.1-7.7,20.2-17.5c0.4-1.9,0.5-3.8,0.4-6.6
				c-0.1-3.5-0.4-4.6-1.7-8.6c-1.7-5.1-2.2-9.7-1.4-11.7c0.9-2.2,3.9-4.4,10.8-7.8c9-4.5,11.4-5.1,14.7-3.4
				c2.2,1.1,3.5,2.7,8.5,10.5c5.8,9,10.5,12.1,18.5,12c3.3,0,6-0.7,9.1-2.2c4.6-2.3,6.9-5.1,11.2-13.2c2.8-5.3,4.8-7.9,6.9-8.9
				c1.4-0.7,1.9-0.8,4.3-0.6c6.8,0.6,14.8,3.9,19,7.9c3.2,3.2,3.6,6.2,1.5,14c-1.6,6.1-1.9,10.5-1,14.1c1.2,5.1,4,9.9,7.7,13.2
				c5.8,5.2,12.6,6.2,21.3,3.3c7.3-2.5,11.1-2.7,13.8-0.8c0.7,0.5,2.4,2.5,3.7,4.4c6.9,10.4,8.5,19.1,4.3,23.4
				c-0.7,0.7-3.3,2.6-5.8,4.3c-10.4,6.8-14.4,13.1-14.3,22.3C322.3,418.4,327.3,425,339.3,431.8z"/>
			<path class="st0" d="M346.5,440.7c0,3.4-2.3,10.9-5.2,16.7c-3.5,7-7.3,8.1-18.7,5.3c-5.6-1.4-9.5-1.4-13.4,0
				c-5,1.7-8.6,4.9-11,9.6c-2.1,4.1-2.8,7.2-2.8,12.9c0,5.3,0.5,8,2.2,12.8c1.5,4.4,1.6,6.9,0.1,9c-3.2,4.5-12.5,9.7-19.4,10.8
				c-5,0.8-6.9-0.4-10.9-7.2c-5.4-9-9.5-13-15.4-15.1c-2-0.7-3.1-0.9-6-0.9c-9.4,0-15.1,4.5-22.8,17.8c-3.3,5.8-4,6.7-5.7,7.4
				c-0.6,0.2-1,0.4-1.5,0.4c-0.1,0-0.2,0-0.3,0c-0.8,0-1.9-0.2-3.8-0.6c-11.4-2.4-17.5-6.1-18.9-11.4c-0.6-2-0.2-5.2,1.3-11.1
				c0.7-2.9,1.2-5.4,1.4-7.6c0,3-0.3,4.2-1.1,7.4c-1.8,7-2,8.5-1.4,10.8c1,3.9,2.9,5.8,8.2,8.3c2.3,1.1,6.4,2.3,11.8,3.6
				c1.5,0.3,4.1,0.2,5-0.3c1.1-0.6,1.9-1.8,5.3-7.7c5.4-9.5,10.1-14.3,16.1-16.4c1.9-0.7,3.1-0.8,6.5-0.8c4.5,0,6.4,0.5,9.9,2.5
				c3.8,2.2,7.7,6.7,11.9,13.7c2.2,3.7,4.1,5.9,5.6,6.5c4.7,2,16.2-2.4,22.4-8.4c3.7-3.6,3.9-4.6,1.5-11.5c-2.7-8.2-2.8-16.3-0.2-23
				c2.5-6.3,7.8-10.9,14.2-12.4c3.6-0.8,6.1-0.7,11.8,0.8c4.1,1,5.8,1.3,8.5,1.3c3.8,0,5.4-0.6,7.4-2.8c2.3-2.7,6.4-12.8,7.4-18.2
				c0.4-2.1,0.3-2.8-0.1-4.4c-0.7-2.4-1.6-3.2-6-5.8c-10.4-6-15.2-10.8-17.4-17.8c-1.5-4.6-0.7-12.3,1.8-16.9
				c0.8-1.5,2.6-3.5,4.8-5.6l0,0c-3.6,3.4-5.4,6.7-6.5,11.1c-2.8,11.8,2.5,20.5,17.4,29C345.2,435.4,346.5,437,346.5,440.7z"/>
			<path class="st0" d="M346,438.5c0.5,1.6,0.5,2.3,0.1,4.4c-0.9,5.4-5,15.5-7.4,18.2c-2,2.3-3.5,2.9-7.4,2.8
				c-2.6,0-4.4-0.3-8.5-1.3c-5.7-1.4-8.2-1.6-11.8-0.8c-6.4,1.5-11.8,6.2-14.2,12.4c-2.6,6.7-2.5,14.8,0.2,23
				c2.3,6.9,2.2,7.8-1.5,11.5c-6.2,6.1-17.7,10.4-22.4,8.4c-1.5-0.6-3.3-2.8-5.6-6.5c-4.2-7-8.1-11.5-11.9-13.7
				c-3.5-2.1-5.4-2.5-9.9-2.5c-3.5,0-4.6,0.1-6.5,0.8c-5.9,2-10.6,6.8-16.1,16.4c-3.4,5.9-4.2,7.2-5.3,7.7c-0.9,0.5-3.5,0.6-5,0.3
				c-5.4-1.2-9.5-2.5-11.8-3.6c-5.2-2.5-7.2-4.4-8.2-8.3c-0.6-2.3-0.4-3.9,1.4-10.8c0.8-3.2,1-4.4,1.1-7.4c0.1-1.4,0.1-2.7,0-4
				c0-2.5-0.2-3.3-0.9-5c-1.4-3.7-3.1-6.2-6.1-9.2c-4.8-4.8-9.9-6.6-16.2-5.6c-1.7,0.3-4.3,0.9-5.7,1.3c-9.2,3-12.5,3-15.4,0.3
				c-1.1-1-2-2.7-4.4-7.9c-3.7-8.2-4.3-9.8-4.6-12.4c-0.4-4.1,1.4-7,6.5-10.1c7.6-4.7,12.2-9.9,14.4-16.3c0.9-2.5,1-3.4,1-6.6
				c0-2.2-0.2-4.5-0.5-5.7c-1.2-4.5-4.6-9.8-8-12.4c-1-0.8-4-2.7-6.7-4.2c-6.6-3.9-7.9-5.1-8.4-8.4c-0.4-2.6,0.4-5.7,3.4-13.2
				c3.7-9.3,5.2-11.3,9-11.8c2.3-0.3,3.9,0,9.1,1.6c7.2,2.3,12,2.2,17.3-0.4c5.3-2.6,9.9-8.2,11.5-14c1.7-6.1,1.5-9.5-0.9-17.1
				c-1.1-3.4-1.4-5.1-1.6-7.7c-0.1-3.1-0.1-3.4,0.7-4.5c1.4-2,3.9-3.7,10.8-7.1c8.7-4.4,10.8-4.8,14.2-2.8c1.8,1,3.3,2.9,6.5,7.9
				c4.6,7.2,6.5,9.5,10.1,11.8c2.9,1.9,5.7,2.6,10.2,2.6c4.3,0,7.2-0.9,10.9-3.2c3.8-2.4,5.8-4.9,9.5-12.1c2.3-4.4,4-6.8,5.9-8.4
				c1.3-1,1.5-1.1,4.4-1c8.6,0.1,19.7,5.7,21.6,10.9c0.8,2.1,0.5,6.2-0.9,11.3c-1.4,5.3-1.7,9.7-0.9,13.4
				c1.5,6.7,6.6,13.6,12.2,16.3c3.1,1.5,6,2.2,9.2,2.1c2.3-0.1,4.8-0.6,7.6-1.5c7.3-2.4,10.1-2.8,12.6-1.6c1.7,0.8,2.7,1.8,5.3,5.6
				c5.3,7.8,7.4,15.7,5.3,20.1c-1.1,2.2-1.9,3-7,6.3c-2.4,1.6-5.1,3.8-7.4,5.9c-2.2,2.1-4,4.2-4.8,5.6c-2.4,4.6-3.3,12.3-1.8,16.9
				c2.2,6.9,7,11.8,17.4,17.8C344.5,435.2,345.3,436.1,346,438.5z M341.1,456.9c2.9-6,5.1-13.1,5.1-16.2c0-1.6-0.7-3.5-1.6-4.6
				c-0.5-0.6-2.9-2.2-5.3-3.6c-9.8-5.6-14.7-10.6-16.7-17.2c-1.7-5.2-1-12.2,1.7-17.3c1.8-3.4,6.9-8.3,12.3-11.8
				c5-3.2,6.2-4.3,7-6.3c0.4-0.9,0.6-2.5,0.5-4.2c0-1.6-0.3-3.3-0.7-4.8c-0.9-3.2-3.4-8.2-5.9-11.8c-2.5-3.6-3.3-4.3-5.5-4.9
				c-1.6-0.5-2.1-0.5-4.6,0c-1.5,0.3-4.6,1.2-6.9,2c-5.2,1.7-8.4,2.1-12.2,1.2c-3.7-0.8-6.6-2.4-9.4-5c-4.1-3.9-6.7-8.5-7.8-13.8
				c-0.4-1.7-0.5-3.2-0.5-4.8c0.1-2.4,0.7-5.2,1.8-9.5c0.6-2.4,0.9-4.2,0.9-6.5c0-2.9-0.1-3.3-1-4.7c-1.2-1.8-3.4-3.6-6.7-5.4
				c-5.8-3.2-14.7-5-17.4-3.5c-1.8,1-4.1,4-6.9,9.1c-4.3,8.1-6.6,10.7-11.5,13.1c-3.1,1.5-5.6,2.1-9.1,2.1
				c-8.3,0-13.4-3.5-19.7-13.5c-5.3-8.5-7.3-10.2-11.2-9.9c-2.6,0.2-4.9,1.2-11.9,4.8c-8.3,4.4-9.5,5.6-9.4,10.1
				c0,2,0.3,3.6,1.3,6.8c2.1,6.6,2.3,8.3,2.1,12.4c-0.5,10.2-6.7,18.6-15.6,21.4c-1.2,0.4-2.3,0.6-3.3,0.8c-0.7,0-1.5,0-2.5,0
				c-0.8,0-1.5,0-2,0c-1.9-0.3-4-0.8-6.8-1.7c-4.3-1.4-8.4-1.9-10.4-1.2c-2.7,0.9-4,3-7.7,12.3c-3.2,8.2-3.8,11.6-2.4,14.5
				c0.9,1.8,2,2.7,7.4,5.8c7.9,4.5,10.7,7.2,13.2,12.4c1.8,3.6,2.4,6.4,2.5,10c0,0,0,0.1,0,0.1c0,8.6-5.1,16.5-14.5,22.6
				c-6,3.9-7.5,5.8-7.5,9.6c0,2.9,0.4,4.2,2.8,9.4c1.1,2.4,2.5,5.6,3.2,7.1c1.3,3.2,3.4,5.6,5.1,6.2c2.2,0.7,6.5,0.2,11.5-1.4
				c5.7-1.8,9.7-2.4,13.2-1.9c8,1.2,15.3,8.8,17.3,17.9c0.8,3.6,0.5,7.7-1.1,14.1c-2,8.1-2,10.4,0.1,13.5c2.4,3.5,9.7,6.9,17.9,8.4
				c0.3,0.1,1,0.1,1.7,0.1c0,0,0,0,0,0c0.4,0.1,0.9,0.1,1.3,0.1c0,0,0,0,0.1,0c2.9,0.1,3.2-0.3,6.9-6.7c3.8-6.6,6.4-10.3,9.4-13.1
				c3.6-3.3,8.2-5.3,12.8-5.7c0,0,0,0,0.1,0c0.7,0,1.5,0,2.3,0c0.4,0,0.8,0,1.2,0.1c0,0,0,0,0,0c0.6,0.1,1.3,0.2,1.9,0.4
				c7,1.8,11.9,6.3,18,16.5c1.9,3.2,3.9,5.5,5.3,6.1c0.4,0.2,1.1,0.3,1.9,0.3c0.2,0,0.5,0,0.7,0c0.3,0,0.7,0,1.1-0.1
				c1.8-0.1,3.9-0.5,5.5-1.1c6.7-2.3,13.5-7,15.3-10.6c0.9-1.7,0.7-3-0.9-8.1c-1.1-3.5-1.8-6.9-2.1-10.2c0-0.6,0-1.3,0-2
				c0-1.2,0-2.1,0-3c0,0,0,0,0,0c0.4-5.8,2.5-10.9,6.1-14.8c5.6-6,12.5-7.6,22.2-5.1c2.7,0.7,5.3,1.1,7.5,1.3c0.5,0.1,1,0.1,1.2,0.1
				c0.2,0,0.5,0,0.8-0.1h0c0.9,0,1.6-0.1,2.2-0.3C337.2,462.7,339.3,460.5,341.1,456.9z"/>
			<path class="st0" d="M346.2,440.7c0,3.1-2.2,10.3-5.1,16.2c-1.7,3.6-3.9,5.8-6.2,6.5c-0.6,0.2-1.3,0.2-2.2,0.3
				c2-0.3,4.4-1.4,5.6-2.8c2.4-2.7,6.3-11.8,7.3-17.4c0.5-2.5,0.5-3.2,0.1-4.7c-0.6-2.4-1.6-3.3-6.5-6.1
				c-10.1-5.8-15.1-11.1-17.1-18.3c-0.3-0.9-0.4-1.9-0.5-2.9c0-0.7,0-1.4,0-2.4c0-1,0-1.8,0-2.5c0.3-2.9,1.1-5.8,2.4-8.4
				c1.7-3.5,6.6-8.3,12.4-12.1c5-3.3,6.7-5,7.4-7.1c0.3-1,0.4-2,0.4-3.2h0c0,1.7-0.1,3.2-0.5,4.2c-0.8,2-2,3-7,6.3
				c-5.4,3.5-10.6,8.5-12.3,11.8c-2.7,5-3.3,12-1.7,17.3c2.1,6.6,6.9,11.6,16.7,17.2c2.4,1.4,4.8,3,5.3,3.6
				C345.5,437.2,346.1,439.1,346.2,440.7z"/>
			<path class="st0" d="M345.7,438.8c0.4,1.5,0.4,2.2-0.1,4.7c-1,5.6-4.9,14.7-7.3,17.4c-1.2,1.4-3.6,2.5-5.6,2.8h0
				c-0.6,0-1.3,0-2-0.1c-2.1-0.3-5.9-1.1-9.5-2c-5.4-1.4-11.4-0.7-15.8,2c-4.2,2.5-7.7,7.1-9.4,12.3c-0.8,2.4-1,3.1-1,6.4
				c0,0,0,0,0,0c-0.1,1.6-0.1,3.3,0,5c0.1,4.9,0.4,6.1,2,10.7c0.8,2.2,1.2,4,1.2,5.4c-0.1-0.9-0.6-2.5-1.8-6.6
				c-1.6-5.2-1.9-7.4-1.9-11.9c0-4.7,1.1-9.5,3-13.2c1.9-3.6,5.5-7.2,9-8.9c5.5-2.6,9.3-2.8,16.5-1c10,2.5,13.3,2,16.5-2.8
				c2.1-3.2,4.9-10.5,5.9-15.6c1-5-0.1-7.1-4.8-9.6c-9.5-5-15.1-10.3-17.9-16.8c-0.9-2-1.1-2.5-1.1-5.6c0.1,1,0.3,2,0.5,2.9
				c2,7.2,7,12.6,17.1,18.3C344.1,435.5,345,436.4,345.7,438.8z"/>
			<path class="st0" d="M340.5,433.8c4.7,2.5,5.8,4.6,4.8,9.6c-1,5.1-3.8,12.4-5.9,15.6c-3.2,4.8-6.5,5.3-16.5,2.8
				c-7.2-1.8-11.1-1.6-16.5,1c-3.5,1.7-7.1,5.2-9,8.9c-1.9,3.7-3,8.5-3,13.2c0,4.5,0.4,6.7,1.9,11.9c1.3,4.1,1.8,5.7,1.8,6.6
				c0,0,0,0,0,0c0,0.1,0,0.3,0,0.4c0,0.4-0.2,0.7-0.4,1.2c-1.1,2.4-5.6,6.1-10.4,8.6c-5.6,2.8-11.9,4-14.1,2.6
				c-1.5-0.9-3.1-3-5.8-7.4c-2.9-4.8-4.7-7.1-7.4-9.7c-4-3.8-8.9-5.7-14.1-5.7c-7.5,0-13.6,3.5-18.9,10.8c-1.1,1.6-3.4,5.2-5,8
				c-3.6,6.2-4.1,6.8-6.5,6.7c-1,0-2.4-0.2-3-0.3c-0.7-0.2-2-0.5-3-0.7c-2.9-0.6-8-2.5-10-3.6c-2.8-1.6-5-3.9-5.7-6.3
				c-0.2-0.7-0.4-1.2-0.5-1.7c0-0.5,0-1,0-1.6c0,0,0,0,0,0c0.2-1.3,0.7-3.3,1.8-7.6c0.8-3.3,1.1-4.6,1.1-7.3c0,0,0,0,0,0
				c0.1-1.3,0.1-2.7,0-4c0-3-0.2-3.5-1.2-6c-3.2-8.1-9.2-13.5-16.7-14.9c-3-0.6-3.3-0.6-6.7,0.1c-1.9,0.4-5.3,1.3-7.5,2
				c-7,2.2-10.4,2.1-12.7-0.5c-1.3-1.4-1.8-2.5-3.6-6.7c-0.5-1.2-1.5-3.3-2.1-4.6c-1.6-3.2-2.9-7.4-2.9-9.3c0,0,0,0,0,0
				c0-1.9,0.9-4.1,2.3-5.5c0.5-0.6,2.8-2.1,4.9-3.5c6.1-4,10-8,12.5-13c1.7-3.5,2-4.7,2.2-9.3c0.2-3.9,0.1-4.7-0.6-7
				c-2.3-7.7-5.9-11.7-15.4-17c-6-3.4-7-4.3-7.4-7c-0.4-2.9,0.2-5.8,3-12.9c2.8-7.2,4.5-10.1,6.2-11.1c2-1.2,5.6-0.9,11.3,0.9
				c4.6,1.5,5.1,1.5,8.9,1.5c2.9,0,4.5-0.2,5.7-0.6c7.4-2.7,12.6-8,14.9-15.3c1.5-4.7,1.8-8,1.1-11.3c-0.7-3.3-0.9-4.2-2.2-8.3
				c-1-3-1.3-4.6-1.3-6.5c0-4.2,1.4-5.6,10.9-10.4c7.4-3.7,9.7-4.4,12.1-3.8c1.8,0.5,4.1,2.5,5.7,5.1c0.5,0.8,2.3,3.5,4,6.1
				c3.9,5.9,6.3,8.4,10.3,10.3l3,1.5l4.1,0.1c0.7,0.1,1.5,0.1,2.2,0c4.3,0,6.2-0.5,9.9-2.6c4.1-2.3,6.5-5.1,10.1-11.9
				c3.5-6.5,5.7-9.4,7.7-10c1.7-0.5,6.8,0.1,10.1,1.2c5.4,1.7,11,5.1,12.8,7.8c1.4,2.1,1.4,5.2-0.2,11.3c-2.2,8.6-2.1,13.8,0.5,19.5
				c3.2,7,9.7,12.7,15.9,13.8c1.2,0.2,2.5,0.3,3.8,0.3c0.1,0,0.2,0,0.4,0c0.2,0,0.5,0,0.8-0.1c2.5-0.2,5.3-0.8,8.4-1.8
				c7.3-2.4,10.6-2.5,12.9-0.3c1.5,1.5,4.9,6.7,6.4,9.9c3.4,7.1,3.7,12.6,0.7,15.8c-0.5,0.5-3.1,2.5-5.8,4.3
				c-7.6,5.1-11.6,9.6-13.5,15.2c-0.6,1.6-0.7,2.6-0.8,5.3c-0.2,1.7-0.2,3.3,0,4.8c0,3.1,0.2,3.5,1.1,5.6
				C325.4,423.4,331,428.7,340.5,433.8z M281.4,427.6c1.7-8.1,2-22.4,0.7-32.5c-1.5-11.8-7-23.1-14.1-29c-5.1-4.3-11.2-6.7-19.9-7.8
				c-3.6-0.5-14.5-0.2-17,0.4c-8.2,2-11.9,3.8-16.4,8c-7.6,7.1-11.5,18.2-10.4,29.9c0.9,9.3,3.5,15.2,9.7,21.4
				c4.5,4.5,7.3,6.2,14.2,8.3c2.4,0.7,11.5,0.6,14.2-0.2c3.4-1,6.8-2.8,9.4-4.7l2.4-1.9l-0.2,3.1c-0.2,3.1-0.4,4-1.4,8.7
				c-1.1,4.9-3.7,8.9-6.7,10.2c-0.8,0.3-2.2,0.6-3.6,0.6c-1.9,0-2.6-0.2-3.7-0.9c-1.9-1.2-2.7-2.4-3.8-5.8c-1.1-3.3-1.4-3.5-4.1-3.1
				c-1,0.1-3.2,0.4-5,0.6c-1.7,0.2-4.1,0.5-5.3,0.7c-1.2,0.2-4.1,0.6-6.7,0.9c-6.7,0.8-6.7,0.8-7.2,1.4c-0.4,0.5-0.3,0.9,0.4,2.9
				c2,5.7,4.3,9.6,7.5,13c6.6,6.9,15.4,9.7,29,9.3c2.7-0.1,6.1-0.4,7.7-0.7C267.4,457.1,277.4,446.4,281.4,427.6z"/>
			<path class="st0" d="M345,435.2c2.9,2.9,2.8,7.2-0.5,16.1c-2.2,5.9-3.6,8.6-5.7,10.7c-3.2,3.2-6.9,3.4-16.3,1.1
				c-4.6-1.1-5.5-1.3-8-1.1c-5.1,0.4-8.7,2-12.3,5.6c-4,4-5.9,8.7-6.3,15.3c-0.3,4.6,0.4,9,2,14.1c2.2,6.6,1.9,8.8-1.7,12.1
				c-6.9,6.4-18.9,10.7-23.5,8.4c-1.8-0.9-3-2.3-6-7.2c-3.5-5.7-4.7-7.3-7.6-9.9c-5.2-4.9-11.4-6.7-18-5c-6.8,1.7-11.6,6.5-18.2,18
				c-1.4,2.4-3,4.9-3.7,5.6c-1.2,1.1-1.5,1.2-3.6,1.3c-1.6,0.1-3.5-0.2-5.8-0.8c-9.3-2.3-14.8-5.3-16.8-9.5c-1.1-2.3-1-7.7,0.5-13.1
				c1.5-5.5,1.8-10.6,1-14c-1.9-7.5-7.7-14.1-14.1-16.1c-4.2-1.3-8.1-0.9-16,1.6c-4.4,1.4-8.3,1.8-10.7,1.2c-2.3-0.6-4.4-3-5.9-6.5
				c-0.7-1.5-2.1-4.8-3.2-7.2c-3-6.5-3.6-9.3-2.7-12.8c0.6-2.3,2.7-4.4,7.7-7.7c7.1-4.6,11.2-9.6,13.1-15.7
				c1.7-5.5,0.9-12.1-2.1-17.1c-2.8-4.6-4.9-6.5-11.9-10.5c-10.4-5.9-11-8.4-5.4-22.4c2.7-6.8,4-9.1,5.6-10.7
				c2.7-2.4,6.2-2.5,13.4-0.2c7.1,2.3,11.2,2.3,16.2,0c4.1-1.9,8.2-5.8,10.2-9.8c1.9-3.7,2.3-5.6,2.3-10.9c0-5,0-5.1-1.5-9.8
				c-1.2-3.7-1.6-5.4-1.7-7.9c-0.3-5.5,0.8-6.7,10.2-11.6c9.1-4.8,11.7-5.5,14.9-4.5c2.6,0.9,4.4,2.8,8.9,9.7
				c2.2,3.3,4.8,6.9,5.7,7.9c3.7,3.8,7.8,5.5,13.2,5.5c5.6,0,10-1.8,14-5.9c2-2.1,2.9-3.3,5.2-7.7c5.9-11.2,7.8-12.4,16.1-10.7
				c5.9,1.2,11.5,3.9,15.1,7.1c3.9,3.5,4.2,6.2,1.9,15.8c-1.3,5.5-1.4,6.2-1.2,9.3c0.3,5.9,2.6,10.8,7.2,15.4c6.3,6.3,12,7.4,22.4,4
				c5.6-1.8,9.2-2.3,11.4-1.6c2,0.7,3.6,2.3,6.2,6.2c4.2,6.3,5.9,10.6,6.2,15.7c0.2,3,0.1,3.4-0.7,5.1c-1.2,2.4-1.9,3-7.6,6.8
				c-5.3,3.5-10.2,8.2-11.7,11.2c-2.5,4.9-3.1,12.3-1.4,17c2.1,6.1,7,11,16,16C341.7,432.8,344.2,434.4,345,435.2z M346.6,440.9
				c0.1-4.2-1-5.5-7.3-9.1c-12-6.8-17-13.5-17.1-22.6c-0.1-9.3,3.9-15.5,14.3-22.3c2.5-1.7,5.2-3.6,5.8-4.3c4.2-4.4,2.6-13-4.3-23.4
				c-1.3-1.9-2.9-3.9-3.7-4.4c-2.7-1.9-6.5-1.7-13.8,0.8c-8.7,3-15.4,1.9-21.3-3.3c-3.7-3.3-6.5-8.1-7.7-13.2c-0.9-3.6-0.5-8,1-14.1
				c2-7.8,1.7-10.8-1.5-14c-4.1-4-12.1-7.4-19-7.9c-2.4-0.2-2.9-0.1-4.3,0.6c-2.1,1-4.2,3.6-6.9,8.9c-4.2,8.1-6.6,10.8-11.2,13.2
				c-3.1,1.5-5.8,2.2-9.1,2.2c-7.9,0-12.7-3.1-18.5-12c-5-7.8-6.3-9.4-8.5-10.5c-3.3-1.7-5.8-1.2-14.7,3.4
				c-6.9,3.5-9.9,5.7-10.8,7.8c-0.8,2-0.3,6.6,1.4,11.7c1.3,4,1.5,5.1,1.7,8.6c0.1,2.9,0,4.8-0.4,6.6c-2.1,9.8-11,17.5-20.2,17.5
				c-2.7,0-4.2-0.3-9.5-2c-3.2-1-4.6-1.3-6.8-1.3c-5.3,0-6.9,1.7-11,12.1c-3.4,8.6-4,11.3-3.1,14.6c0.6,2.4,2.5,4,8.7,7.6
				c6.7,3.8,9.8,6.8,12.2,11.3c2,3.8,2.5,6.2,2.5,10.5c0,5.5-1.6,9.6-5.5,14.6c-2.3,2.9-4.8,5-10.1,8.4c-3.7,2.4-5.1,3.9-5.9,6.1
				c-1.1,3.1-0.4,6.5,2.8,13.4c1.2,2.6,2.5,5.5,2.9,6.3c1.2,3,2.9,5.2,4.4,6c3,1.5,6.2,1.3,13.4-1c5.9-1.9,9.1-2.3,12.5-1.7
				c7,1.2,13.4,7.1,16.2,14.9c0.7,2,0.8,2.9,0.8,7c0,4.3-0.1,5.2-1.3,9.8c-2.2,8.5-1.7,12,2.1,15.5c2.9,2.6,7.2,4.5,14.1,6.1
				c2.4,0.6,4.2,0.8,5.5,0.8c0.1,0,0.2,0,0.3,0c1.7-0.1,2.7-0.6,3.6-1.6c0.3-0.4,1.9-3,3.6-5.8c5.3-9.3,8.8-13.3,13.4-15.8
				c4.4-2.3,10-3,14.2-1.8c6.5,1.9,11.1,6.3,16.8,15.9c1.8,3.1,4.5,6.1,6,6.7c2.5,1,9-0.3,14.2-2.9c4.7-2.4,9.6-6.3,10.9-8.7
				c0.9-1.8,0.7-4-0.8-8.7c-1.8-5.8-2.3-8.8-2.1-13.7c0.2-4.5,0.8-7.1,2.5-10.6c3.2-6.7,9.2-10.8,16.5-11.3c2.5-0.2,3.5,0,8.2,1.2
				c6.4,1.6,11.1,1.9,13.3,0.7c2.9-1.4,4.6-3.9,7.1-9.9C345.5,447.9,346.6,444,346.6,440.9z"/>
			<path class="st0" d="M344.5,376c0.1,4.5-1.1,6.2-6.7,9.9c-3.7,2.4-6.5,4.5-8.7,6.6l0,0c2.3-2.2,4.9-4.3,7.4-5.9
				c5.2-3.3,6-4.1,7-6.3c2.1-4.4,0-12.3-5.3-20.1c-2.6-3.8-3.5-4.8-5.3-5.6c-2.5-1.2-5.3-0.8-12.6,1.6c-2.8,0.9-5.3,1.4-7.6,1.5v0
				c2.1-0.1,4.4-0.7,8.7-2.1c5.7-1.8,8.2-2.3,10.3-1.8c2.3,0.6,3.7,1.9,6.4,5.9C342.4,365.8,344.5,371.2,344.5,376z"/>
			<path class="st0" d="M344,375.8c0,1.2-0.1,2.3-0.4,3.2c-0.6,2.2-2.4,3.9-7.4,7.1c-5.8,3.8-10.7,8.6-12.4,12.1
				c-1.3,2.5-2.1,5.5-2.4,8.4c0.1-2.7,0.2-3.7,0.8-5.3c1.9-5.6,5.9-10.1,13.5-15.2c2.7-1.8,5.3-3.7,5.8-4.3
				c2.9-3.1,2.7-8.7-0.7-15.8c-1.5-3.2-4.9-8.4-6.4-9.9c-2.2-2.2-5.6-2.1-12.9,0.3c-3.1,1-5.9,1.6-8.4,1.8c2-0.3,6-1.3,9.2-2.4
				c3.6-1.2,7.3-1.9,8.8-1.6c2.6,0.6,3.6,1.4,6.3,5.5C341.7,366,343.9,371.5,344,375.8z"/>
			<path class="st0" d="M344,375.8L344,375.8c-0.1-4.3-2.4-9.8-6.5-16c-2.7-4.1-3.7-4.9-6.3-5.5c-1.5-0.3-5.2,0.3-8.8,1.6
				c-3.3,1.1-7.2,2.1-9.2,2.4c-0.4,0-0.8,0-1.2,0.1c-2.3-0.1-6.1-1.1-8.5-2.3c-5.7-2.8-10.8-9.4-12.5-16.2c-0.4-1.5-0.5-3.6-0.4-5.9
				h0c-0.1,1.7,0.1,3.1,0.5,4.8c1.1,5.3,3.7,9.9,7.8,13.8c2.8,2.7,5.7,4.2,9.4,5c3.8,0.8,7.1,0.5,12.2-1.2c2.3-0.8,5.4-1.6,6.9-2
				c2.5-0.5,2.9-0.5,4.6,0c2.2,0.6,3,1.3,5.5,4.9c2.5,3.6,5,8.5,5.9,11.8C343.8,372.5,344,374.2,344,375.8z"/>
			<path class="st0" d="M342.8,282.2c0.2,0,0.2,0.1,0.2,0.1c0,0.2-1.1,2-2.4,3.9c-5.2,7.8-7.7,13-9.7,20.8
				c-1.4,5.4-2.5,11.4-2.2,12.2c0,0.1,0.1,0.1,0.1,0.2v0h0c0.4,0.3,1.7,0.3,6.3,0.3l6.2-0.1c0,0,0,0,0,0c-0.2,0.2-0.8,0.3-1.7,0.4
				l-4.4,0.1c-1.8,0-3.1,0-4,0c0,0,0,0,0,0c-1.3-0.1-2.3-0.2-2.5-0.4c-0.3-0.3-0.2-1.6,0.3-4.6c2-11.8,5-19.3,11.4-28.8
				C341.8,284.2,342.9,282.4,342.8,282.2C342.8,282.2,342.8,282.2,342.8,282.2z"/>
			<path class="st0" d="M342.8,282.2c0.1,0.1-1,1.9-2.3,4c-6.5,9.5-9.4,17.1-11.4,28.8c-0.5,3.1-0.6,4.3-0.3,4.6
				c0.2,0.2,1.1,0.3,2.5,0.4c-2.1,0-2.6-0.2-2.7-0.5c-0.6-1.6,2-13.7,4.2-19.5c1.7-4.4,3.6-7.9,7-13c1.6-2.4,2.9-4.4,3-4.6
				c0,0-0.3-0.1-0.9-0.1c0,0-0.1,0-0.1,0c-0.1,0-0.3,0-0.4,0c-0.4,0-0.8,0-1.4,0c-0.2,0-0.4,0-0.6,0c-0.5,0-1.1,0-1.7,0
				c-1.1,0-2.3,0-3.6,0c-0.9,0-1.7,0-2.6,0c-7.3,0-10-0.1-10.4-0.4c-0.4-0.3-0.5-0.8-0.5-3.6c0.1,1.6,0.2,2.8,0.3,3
				c0.3,0.6,0.8,0.7,11.2,0.7c4.2,0,8,0.1,9.8,0.2c0.1,0,0.2,0,0.3,0C342.3,282.2,342.6,282.2,342.8,282.2
				C342.8,282.2,342.8,282.2,342.8,282.2z"/>
			<path class="st0" d="M342.8,282.2c-0.2,0-0.5-0.1-0.8-0.1C342.4,282.2,342.7,282.2,342.8,282.2z"/>
			<path class="st0" d="M341.4,319.5L341.4,319.5L341.4,319.5C341.4,319.6,341.4,319.6,341.4,319.5z"/>
			<path class="st0" d="M341.1,282.4c0.2,0,0.3,0,0.4,0C341.4,282.5,341.3,282.4,341.1,282.4z"/>
			<path class="st0" d="M332.6,282c4.2,0,7.3,0.1,9,0.2c-1.8-0.1-5.6-0.2-9.8-0.2c-10.3,0-10.8,0-11.2-0.7c-0.1-0.2-0.2-1.4-0.3-3
				c0,0,0,0,0,0c0-0.7,0-1.5,0-2.6l0.1-4.3c0.1-0.6,0.2-0.8,0.4-1l-0.1,5.6c-0.1,5.6-0.1,5.6,0.7,5.9
				C321.8,281.9,326.9,282,332.6,282z"/>
			<path class="st0" d="M335.2,320.1l4.4-0.1c-2.2,0.2-6,0.3-8.5,0.1C332.1,320.1,333.4,320.1,335.2,320.1z"/>
			<path class="st0" d="M339.8,282.4c-0.2,0-0.4,0-0.6,0C339.4,282.4,339.6,282.4,339.8,282.4z"/>
			<path class="st0" d="M337.4,282.4c-1.1,0-2.3,0-3.6,0C335.2,282.3,336.4,282.3,337.4,282.4z"/>
			<path class="st0" d="M330.6,463.6c0.7,0.1,1.4,0.1,2,0.1c-0.3,0-0.5,0.1-0.8,0.1C331.6,463.7,331.2,463.6,330.6,463.6z"/>
			<path class="st0" d="M332.7,333.3c-0.6,0-1.3,0-2.1,0c-1.1,0-1.8,0-2.4,0c0.8-0.2,1.5-0.2,2.4-0.2
				C331.2,333.1,332,333.2,332.7,333.3z"/>
			<path class="st0" d="M328.9,319.4L328.9,319.4L328.9,319.4C328.9,319.4,328.9,319.4,328.9,319.4z"/>
			<path class="st0" d="M321.2,461.6c3.5,0.9,7.4,1.7,9.5,2c-2.2-0.2-4.8-0.6-7.5-1.3c-9.6-2.4-16.6-0.8-22.2,5.1
				c-3.6,3.8-5.6,8.9-6.1,14.8c0-3.3,0.2-4,1-6.4c1.7-5.2,5.3-9.8,9.4-12.3C309.8,460.9,315.7,460.2,321.2,461.6z"/>
			<path class="st0" d="M325.1,334.2c1.1-0.6,1.6-0.9,3.1-0.9c-2.5,0.5-4.7,2-8.8,5.7c-5,4.5-6.4,4.5-11.1,0.1
				c-1.6-1.5-3.9-3.4-5-4.3c-1.2-0.9-2.6-2.2-3.3-2.9c-0.9-1-1.1-1.3-1-2.4c0.1,0.6,0.3,1.1,0.7,1.7c0.4,0.6,1.9,2.1,3.4,3.2
				c1.5,1.1,4,3.3,5.6,4.7c4.5,4.3,5.7,4.2,11.1-0.6C321.8,336.7,324.2,334.8,325.1,334.2z"/>
			<path class="st0" d="M320.8,281.9c0.4,0.3,3.1,0.4,10.4,0.4c-10.1,0-10.6,0-11-0.7c-0.1-0.2-0.2-1.4-0.3-2.9c0-0.8,0-1.8,0-3
				l0.1-4.7c0.1-0.5,0.2-0.8,0.4-1l0,1.4c-0.1,0.8-0.2,2.1-0.2,4.4c0,0.9,0,1.8,0,2.5c0,0,0,0,0,0
				C320.3,281.1,320.4,281.6,320.8,281.9z"/>
			<path class="st0" d="M320.5,269.9h2.1c-1.1,0.1-1.5,0.2-1.7,0.3h0v0c-0.2,0.2-0.3,0.5-0.4,1L320.5,269.9
				C320.4,269.9,320.4,269.9,320.5,269.9C320.5,269.9,320.5,269.9,320.5,269.9z"/>
			<path class="st0" d="M320.1,269.5h2.2c-1.2,0.1-1.6,0.2-1.8,0.3h0v0c-0.2,0.2-0.3,0.5-0.4,1L320.1,269.5z"/>
			<path class="st0" d="M321.5,406.6c0,0.7,0,1.5,0,2.5c0,0.9,0,1.7,0,2.4C321.3,409.9,321.3,408.2,321.5,406.6z"/>
			<path class="st0" d="M320.8,270.2C320.8,270.2,320.8,270.3,320.8,270.2C320.8,270.3,320.8,270.3,320.8,270.2L320.8,270.2
				L320.8,270.2z"/>
			<path class="st0" d="M320.5,269.9C320.5,269.9,320.5,269.9,320.5,269.9C320.4,269.9,320.4,269.9,320.5,269.9L320.5,269.9
				L320.5,269.9z"/>
			<path class="st0" d="M320.4,271.3l-0.1,4.3c0,1,0,1.9,0,2.6c0-0.8,0-1.6,0-2.5C320.2,273.4,320.3,272.1,320.4,271.3z"/>
			<path class="st0" d="M320,271l-0.1,4.7c0,1.2,0,2.2,0,3c0-0.9-0.1-1.9-0.1-3C319.9,273.2,319.9,271.8,320,271z"/>
			<path class="st0" d="M312.4,253.6c1,4.2,1.3,6.1,1.1,8.2c-0.6,6.3-4.4,10.6-11.1,12.6c-2.1,0.6-6.2,1.2-10.5,1.5l-2.6,0.2
				c0.7-0.4,1.8-0.4,4.3-0.6c10.4-0.7,16.4-3.8,18.7-9.6c0.5-1.1,0.7-2.7,0.8-4.5c0.1-0.8,0.1-1.4,0-2.3c-0.1-1.7-0.3-3.5-0.8-5.2
				c-0.4-1.6-0.8-3.7-0.8-4.6c0-0.1,0-0.2,0-0.3h0c0,0.2,0,0.5,0.1,0.9C311.7,250.7,312.1,252.4,312.4,253.6z"/>
			<path class="st0" d="M313,259.1c0.1,0.9,0.1,1.5,0,2.3C313.1,260.7,313.1,259.9,313,259.1z"/>
			<path class="st0" d="M312.8,357.6L312.8,357.6c-3.2,0.1-6.2-0.5-9.2-2c-5.6-2.8-10.7-9.6-12.2-16.3c-0.8-3.7-0.5-8.2,0.9-13.4
				c1.4-5.1,1.7-9.2,0.9-11.3c-2-5.2-13-10.7-21.6-10.9c-2.9,0-3.1,0-4.4,1c-2,1.6-3.7,4-5.9,8.4c-3.8,7.2-5.7,9.7-9.5,12.1
				c-3.7,2.4-6.6,3.2-10.9,3.2c-4.4,0-7.2-0.7-10.2-2.6c-3.6-2.3-5.5-4.6-10.1-11.8c-3.2-5-4.7-6.9-6.5-7.9
				c-3.4-1.9-5.5-1.5-14.2,2.8c-6.8,3.4-9.4,5.1-10.8,7.1c-0.8,1.1-0.8,1.5-0.7,4.5c0.1,2.6,0.5,4.3,1.6,7.7
				c2.4,7.6,2.6,11,0.9,17.1c-1.6,5.9-6.2,11.4-11.5,14c-5.3,2.6-10.1,2.7-17.3,0.4c-5.2-1.7-6.8-2-9.1-1.6c-3.8,0.5-5.4,2.5-9,11.8
				c-3,7.5-3.8,10.6-3.4,13.2c0.5,3.3,1.7,4.6,8.4,8.4c2.7,1.6,5.7,3.5,6.7,4.2c3.4,2.6,6.8,8,8,12.4c0.3,1.2,0.5,3.5,0.5,5.7
				c0,3.2-0.2,4.1-1,6.6c-2.2,6.4-6.8,11.6-14.4,16.3c-5.1,3.1-6.9,6-6.5,10.1c0.3,2.5,0.9,4.1,4.6,12.4c2.3,5.2,3.3,6.9,4.4,7.9
				c2.9,2.7,6.2,2.7,15.4-0.3c1.4-0.5,4-1.1,5.7-1.3c6.2-1,11.4,0.8,16.2,5.6c3,3,4.6,5.5,6.1,9.2c0.7,1.7,0.8,2.5,0.9,5
				c-0.3-2.7-1.1-5.2-2.5-8c-1.9-3.8-6.4-8.3-10-10c-5.2-2.5-9.3-2.4-17.5,0.1c-7.3,2.3-10,2.5-12.9,1.1c-1.8-0.9-2.6-1.9-4.2-5.4
				c-0.8-1.7-2.2-4.8-3.2-6.8c-2.5-5.4-3.1-7.4-3.1-10.3c0-4.3,1.6-6.4,7.6-10c3.2-1.9,7.6-5.8,9.6-8.6c5.5-7.4,6.3-15.6,2.5-23.5
				c-2.6-5.3-5.4-7.9-13.5-12.6c-6.8-3.9-7.9-5.2-7.9-9.5c0-2.9,0.7-5.2,3.6-12.4c2.6-6.4,3.2-7.6,4.7-9.3c1.5-1.6,3-2.2,5.9-2.2
				c2.1,0,3.2,0.3,9.9,2.3c6.2,1.9,12.1,1.1,17.4-2.5c5.7-3.8,9.4-10.4,10-17.8c0.3-3.6-0.2-6.4-2-12.3c-1.2-3.8-1.4-5.1-1.5-7.6
				c0-2.7,0.1-3.1,0.9-4.4c0.5-0.8,1.9-2.1,3-2.8c2.7-1.8,12.7-6.8,15.1-7.6c5.4-1.6,8.3,0.2,13.5,8.4c5.8,9.2,9,12.2,14.7,13.8
				c6.5,1.8,13.9,0,19-4.7c2.4-2.2,3.3-3.4,6.4-9.3c3-5.5,4.5-7.8,6.4-9.2c1.2-0.9,1.7-1,3.9-1c6.6,0,15.5,3.5,20,7.9
				c1.9,1.9,2.2,2.4,2.6,4.2c0.5,2.5,0.3,4.2-1.3,10.7c-2.1,8.3-1.7,13.1,1.5,19.3c3.3,6.3,8.5,10.4,14.7,11.7
				C310.2,357.4,311.4,357.6,312.8,357.6z"/>
			<path class="st0" d="M313.2,358.2c-0.3,0-0.6,0.1-0.8,0.1c-0.1,0-0.2,0-0.4,0C312.4,358.3,312.8,358.3,313.2,358.2z"/>
			<path class="st0" d="M312,358.3c-1.3,0-2.6-0.1-3.8-0.3c-6.2-1.1-12.8-6.8-15.9-13.8c-2.6-5.7-2.7-10.9-0.5-19.5
				c1.6-6.2,1.6-9.2,0.2-11.3c-1.8-2.7-7.3-6.1-12.8-7.8c-3.3-1.1-8.4-1.6-10.1-1.2c-2,0.6-4.3,3.5-7.7,10c-3.6,6.8-6,9.6-10.1,11.9
				c-3.7,2-5.6,2.6-9.9,2.6c5.3-0.2,10.5-2.5,14.4-6.4c2-2,3-3.6,7-11.1c1.6-3,4.2-6.3,5.6-7c1-0.5,5.8-0.4,8.4,0.3
				c6.4,1.6,13.3,5.3,15.4,8.4c1.7,2.5,1.6,6.3-0.4,13.6c-0.6,2-0.9,4.7-1,7.2c-0.1,2.3,0.1,4.5,0.4,5.9c1.8,6.9,6.8,13.4,12.5,16.2
				C305.9,357.2,309.7,358.2,312,358.3z"/>
			<path class="st0" d="M299,328.2c0,0.1,0,0.2,0,0.3c0,0.3,0,0.6,0,0.9C298.9,329.1,298.9,328.7,299,328.2z"/>
			<path class="st0" d="M298.1,503.8c0-0.1,0-0.3,0-0.4c0,0,0,0,0,0c0-1.4-0.4-3.3-1.2-5.4c-1.7-4.6-2-5.8-2-10.7
				c0.2,3.3,0.9,6.7,2.1,10.2c1.7,5.1,1.8,6.4,0.9,8.1c-1.8,3.5-8.6,8.2-15.3,10.6c-1.6,0.6-3.7,0.9-5.5,1.1c2.1-0.3,5.3-1.1,7.6-2
				c5.6-2.3,12.3-7.4,13.2-10C298,504.7,298.1,504.3,298.1,503.8z"/>
			<path class="st0" d="M298.1,503.4c0,0.2,0,0.3,0,0.4C298.1,503.7,298.1,503.6,298.1,503.4z"/>
			<path class="st0" d="M298.1,503.8c0,0.5-0.1,0.9-0.2,1.3c-0.9,2.6-7.6,7.7-13.2,10c-2.3,0.9-5.5,1.8-7.6,2c-0.6,0-1.3,0.1-1.8,0
				c-2.4-0.3-4.5-2.2-6.8-6.1c-4.2-7.2-7.3-10.9-11.1-13.7c-3.2-2.3-5.5-3.2-9.2-3.5c0,0,0,0,0,0c-1.1-0.1-2.3-0.2-3.5-0.1
				c0,0,0,0-0.1,0c-9.2,0.3-14.9,5.3-23,19.7c-1.8,3.1-2.9,4.7-3.6,5.2c-0.6,0.4-1.5,0.6-2.5,0.6c-0.4,0-0.9,0-1.3-0.1c0,0,0,0,0,0
				c-0.3,0-0.5-0.1-0.8-0.1c-10.7-2.4-15.6-4.6-18.3-8.1c-1-1.3-1.6-2.8-1.7-4.6c0.1,0.5,0.3,1,0.5,1.7c0.7,2.3,2.9,4.6,5.7,6.3
				c2,1.2,7.1,3,10,3.6c1,0.2,2.3,0.5,3,0.7c0.7,0.2,2,0.3,3,0.3c2.5,0.1,3-0.5,6.5-6.7c1.6-2.8,3.9-6.4,5-8
				c5.2-7.3,11.4-10.8,18.9-10.8c5.2,0,10,2,14.1,5.7c2.7,2.6,4.5,4.9,7.4,9.7c2.7,4.4,4.3,6.5,5.8,7.4c2.2,1.4,8.6,0.2,14.1-2.6
				c4.8-2.5,9.3-6.2,10.4-8.6C297.9,504.5,298,504.2,298.1,503.8z"/>
			<path class="st0" d="M294.9,482.3c0,0.8,0,1.8,0,3c0,0.8,0,1.4,0,2C294.8,485.6,294.8,483.9,294.9,482.3z"/>
			<path class="st0" d="M292.3,313.1c0.9,1.4,1,1.8,1,4.7c0,2.3-0.2,4.1-0.9,6.5c-1.2,4.3-1.7,7.1-1.8,9.5h0c0.1-2.5,0.4-5.2,1-7.2
				c2-7.2,2.2-11.1,0.4-13.6c-2.1-3.1-9-6.8-15.4-8.4c-2.6-0.6-7.4-0.8-8.4-0.3c-1.4,0.7-4,4-5.6,7c-4,7.5-5,9-7,11.1
				c-3.9,4-9.1,6.2-14.4,6.4c-0.5,0-1,0-1.6,0l-0.7,0c-1.2-0.1-2.3-0.3-3.5-0.6c-5.5-1.4-9.2-4.5-14-12c-5.4-8.4-6.5-9.6-9.4-10.6
				c-2.4-0.8-4.6-0.2-12.4,3.7c-6.9,3.4-9.6,5.3-10.6,7.3c-1,2-0.6,5.6,1.5,12.2c1.8,5.8,2.1,9.4,1.1,14.5
				c-1.4,7.6-7.2,14.5-14.4,17.3c-1.5,0.6-2.3,0.8-4.3,0.8c1-0.2,2.1-0.4,3.3-0.8c9-2.8,15.1-11.2,15.6-21.4
				c0.2-4.2-0.1-5.8-2.1-12.4c-1-3.2-1.3-4.8-1.3-6.8c0-4.5,1.1-5.8,9.4-10.1c6.9-3.6,9.3-4.6,11.9-4.8c3.9-0.4,5.9,1.4,11.2,9.9
				c6.3,10,11.4,13.5,19.7,13.5c3.6,0,6-0.6,9.1-2.1c4.9-2.4,7.2-5,11.5-13.1c2.7-5.2,5-8.2,6.9-9.1c2.8-1.4,11.6,0.4,17.4,3.5
				C288.9,309.5,291.1,311.3,292.3,313.1z"/>
			<path class="st0" d="M289.2,276.1C289.2,276.1,289.2,276.1,289.2,276.1L289.2,276.1L289.2,276.1z"/>
			<path class="st0" d="M289.1,276.1l-0.9,1.8c-1,2-2.3,7.2-2.3,9c0,0.6-0.2,1.7-0.3,2.3c-0.1,0.4-0.2,0.8-0.2,1.2h0
				c0-3.7,1-9.1,2.5-12.4C288.4,277,288.6,276.5,289.1,276.1z"/>
			<path class="st0" d="M282.1,395.1c1.3,10.1,1,24.4-0.7,32.5c-4,18.8-13.9,29.5-30.3,32.7c-1.6,0.3-5,0.6-7.7,0.7
				c-13.7,0.4-22.4-2.4-29-9.3c-3.3-3.4-5.5-7.2-7.5-13c-0.7-1.9-0.7-2.4-0.4-2.9c0.5-0.6,0.5-0.6,7.2-1.4c2.5-0.3,5.5-0.7,6.7-0.9
				c1.2-0.2,3.5-0.5,5.3-0.7c1.7-0.2,4-0.5,5-0.6c2.7-0.4,3-0.1,4.1,3.1c1.1,3.4,1.9,4.6,3.8,5.8c1.2,0.7,1.9,0.9,3.7,0.9
				c1.4,0,2.8-0.2,3.6-0.6c3.1-1.3,5.6-5.3,6.7-10.2c1.1-4.7,1.2-5.6,1.4-8.7l0.2-3.1l-2.4,1.9c-2.6,2-6,3.7-9.4,4.7
				c-2.7,0.8-11.7,0.9-14.2,0.2c-6.9-2.1-9.7-3.7-14.2-8.3c-6.1-6.2-8.8-12.1-9.7-21.4c-1.1-11.7,2.8-22.8,10.4-29.9
				c4.5-4.2,8.2-6,16.4-8c2.4-0.6,13.4-0.9,17-0.4c8.7,1.1,14.8,3.5,19.9,7.8C275.1,372,280.6,383.2,282.1,395.1z M280.8,428.8
				c2.9-13,2.3-33.1-1.4-44.5c-2-6.2-5.8-12.5-10-16.7c-4.4-4.4-9.2-6.8-16.9-8.6c-1.6-0.4-4.9-0.6-8.4-0.7c-0.2,0-0.5,0-0.7,0
				c-2.5-0.1-4.8-0.1-7.1,0.1c0,0,0,0,0,0c-2.6,0.1-4.9,0.3-6.2,0.6c-6.6,1.6-11.5,4.2-15.6,8.3c-7.5,7.4-10.9,17.7-9.8,29.7
				c0.8,9.1,4,15.8,10.5,21.9c6.3,5.9,14.6,8.6,23.2,7.5c2-0.3,4.3-0.7,5-0.9c2.3-0.7,6.5-3,8.9-5l2.2-1.8l-0.2,3.1
				c-0.4,5.2-1.8,11.8-3.1,14.3c-2,4-5.2,6.3-8.8,6.3c-4.5,0-7.2-2.7-8.4-8.4c-0.3-1.6-1-1.8-3.9-1.4c-1.3,0.2-4.2,0.6-6.3,0.8
				s-5.8,0.8-8.2,1.1c-2.4,0.3-5.2,0.7-6.3,0.8c-1.1,0.1-2.1,0.4-2.4,0.5c-1.5,1,3,10.8,7.1,15.2c5.3,5.8,12.9,9.1,22.1,9.7
				c4.4,0.3,12.7-0.1,15.8-0.8C267.3,456.5,276.9,446.2,280.8,428.8z"/>
			<path class="st0" d="M281.8,408.9c0,13.5-1.9,23.6-5.9,31.7c-5.6,11.2-15.7,17.9-29.3,19.2c-4.7,0.5-8.9,0.4-14-0.4
				c-10.9-1.6-18.3-6.8-22.9-16.3c-1.6-3.2-2.6-6.3-2.2-6.7c0.2-0.2,3.4-0.7,14.1-2.1c2.1-0.3,5.3-0.7,7-0.9
				c1.8-0.2,3.4-0.3,3.7-0.2c0.3,0.1,0.7,0.9,0.9,1.9c0.9,3.5,2.6,5.9,5.1,7.3c2.1,1.1,5.7,1,8.1-0.2c3.8-1.9,6-5.8,7.3-12.4
				c0.9-4.3,1.8-12.2,1.5-12.6c-0.1-0.1-1.4,0.9-2.9,2.1c-3,2.5-7.7,5-11,5.8c-1.2,0.3-3.8,0.5-6.7,0.5c-3.8,0-5.3-0.2-7.5-0.8
				c-10-2.9-17.6-10.6-20.6-21.2c-2.4-8.4-1.7-18.8,1.9-26.3c4.6-9.7,11.6-15.1,22.4-17.5c4.2-0.9,15.9-0.9,20.6,0
				c8,1.6,13,4.1,17.8,9.1C277.9,377.8,281.8,390.1,281.8,408.9z M281.5,409.1c0-16.7-3-28-9.7-36.8c-6.5-8.6-14.8-12.3-28.8-12.8
				c-12.2-0.4-20.6,2.2-27.1,8.2c-7.5,7-11.3,17.7-10.2,29c0.9,9.3,3.8,15.2,10.1,21.2c4,3.8,8.1,6,13,7c9.1,1.9,17.3-0.2,23.6-6.1
				c2.6-2.4,3.3-2.6,3.3-0.7c0,1.8-0.9,8.7-1.5,12c-1.5,7.5-4.5,11.8-9.3,13.2c-5.3,1.6-9.9-1.3-11.7-7.1c-0.6-2-0.9-2.5-1.4-2.5
				c-0.8,0-21.7,2.7-23.1,3c-1.2,0.3-1.2,0.7,0.2,4.2c2.5,6.1,7.2,11.7,12.1,14.6c5.9,3.4,15.9,5,25.4,4.1c9.3-0.9,16.3-4,22.3-9.7
				C277.4,441.5,281.4,428.5,281.5,409.1z"/>
			<path class="st1" d="M271.8,372.2c6.7,8.9,9.7,20.2,9.7,36.8c0,19.4-4.1,32.5-12.6,40.7c-6,5.7-12.9,8.8-22.3,9.7
				c-9.5,1-19.5-0.6-25.4-4.1c-5-2.9-9.6-8.5-12.1-14.6c-1.4-3.5-1.5-3.9-0.2-4.2c1.4-0.3,22.3-3,23.1-3c0.5,0,0.8,0.5,1.4,2.5
				c1.7,5.9,6.3,8.7,11.7,7.1c4.8-1.4,7.8-5.7,9.3-13.2c0.6-3.2,1.5-10.2,1.5-12c0-1.9-0.7-1.7-3.3,0.7c-6.4,5.8-14.5,7.9-23.6,6.1
				c-5-1-9.1-3.2-13-7c-6.3-6-9.1-12-10.1-21.2c-1.1-11.2,2.6-22,10.2-29c6.5-6.1,15-8.6,27.1-8.2
				C257,359.9,265.3,363.6,271.8,372.2z M253.1,402.3c2.6-5.1,2.6-13.5,0-19.1c-1.2-2.5-4.1-5.5-6.6-6.6c-1.6-0.7-2.6-0.9-4.7-1
				c-2.3,0-2.9,0.1-5,1.1c-3.5,1.7-6,5.3-6.9,9.9c-0.5,2.7-0.4,9.3,0.2,11.8c1.2,5.2,4.7,9.3,8.9,10.5c2.1,0.6,5.9,0.3,7.9-0.6
				C249,407.5,252,404.6,253.1,402.3z"/>
			<path class="st0" d="M282.4,409.1c0,13-2.1,24.1-5.9,31.7c-5.3,10.6-14.6,17.3-26.7,19.2c-4,0.6-13.2,0.7-17.5,0
				c-7.7-1.1-13.4-4-18-9.1c-3.2-3.5-6.8-10.2-7.4-13.7c-0.1-0.9-0.1-1.2,0.5-1.4c0.6-0.2,10.5-1.6,20.9-2.9
				c2.3-0.3,4.4-0.5,4.6-0.4c0.1,0,0.2,0.2,0.3,0.4l-0.5,0h0c0,0-0.1,0-0.1,0h0l-1.4,0c-1.1,0-4,0.3-6.3,0.6c-2.3,0.3-6,0.8-8.2,1.1
				c-2.2,0.3-5.2,0.7-6.6,0.9c-1.4,0.2-2.7,0.5-2.9,0.8c-0.3,0.5,0.9,4.3,2.5,7.3c4.3,8.5,11.6,14,21,15.8
				c6.1,1.1,14.7,1.2,20.3,0.1c7.8-1.5,14.5-5.1,19.6-10.5c2.7-2.9,4-4.8,5.8-8.5c6-12.2,7.7-33.8,4-51.3c-1.6-7.6-6-16-11-21
				c-4.6-4.7-9.2-7-17.5-8.8c-1.5-0.3-4.1-0.5-7-0.6c0,0,0,0,0,0c-2.9-0.2-4.9-0.2-7.7,0c0,0,0,0,0,0c-2.6,0.1-4.9,0.3-6.3,0.6
				c-3.6,0.8-8.4,2.6-10.9,4.1c-4.9,3-10.2,9.3-12.4,15.1c-2,5.1-2.5,8.3-2.5,14.3c0,10.4,2.6,17.4,8.8,23.9c4.4,4.6,8.3,7,13.8,8.5
				c3.4,0.9,11.2,0.9,14.5,0c3.8-1,9.3-4.2,11.4-6.5c0.5-0.5,1.2-0.9,1.5-0.7l0.1,1c0,0.1,0,0.2,0,0.3c-0.3,3.6-1.5,11-2.4,14.2
				c-2.3,7.8-9.4,11.6-14.9,7.9c-1.8-1.2-3.3-3.7-4.1-6.7l-0.4-1.7c0.3,0.6,0.7,1.6,1.1,2.8c0.8,2.5,1.2,3.3,2.5,4.6
				c1.8,1.8,3.7,2.4,6.5,2.2c2.4-0.2,3.8-0.9,5.7-2.9c2.8-2.9,4.2-7.1,5.4-16.1c0.3-2.6,0.5-4.8,0.4-4.9c-0.1-0.1-1.3,0.7-2.6,1.8
				c-2.8,2.3-7,4.5-10.4,5.3c-3.6,0.9-10.3,0.8-14-0.2c-3.4-0.9-6.4-2.3-9.2-4.2c-2.6-1.7-7.2-6.7-8.8-9.3
				c-8.1-13.5-6.3-32.5,4-43.6c5.3-5.8,13.1-9.2,22.6-9.9c0,0,0,0,0,0c2.4-0.1,5.2-0.1,7.8-0.1c13.6,0.8,22,4.7,28.3,13.1
				C279.4,380.7,282.4,392.2,282.4,409.1z"/>
			<path class="st0" d="M276.6,440.8c3.8-7.6,5.9-18.7,5.9-31.7c0-16.9-3.1-28.3-10-37.6c-6.3-8.4-14.8-12.3-28.3-13.1
				c3.5,0.1,6.8,0.3,8.4,0.7c7.7,1.7,12.5,4.2,16.9,8.6c4.2,4.2,8,10.5,10,16.7c3.7,11.4,4.3,31.4,1.4,44.5
				c-3.9,17.4-13.5,27.7-29,31c-3.1,0.7-11.4,1.1-15.8,0.8c-9.2-0.6-16.8-3.9-22.1-9.7c-4-4.4-8.6-14.2-7.1-15.2
				c0.3-0.2,1.3-0.4,2.4-0.5c1.1-0.1,3.9-0.5,6.3-0.8c2.4-0.3,6.1-0.8,8.2-1.1s4.9-0.7,6.3-0.8c2.9-0.4,3.5-0.1,3.9,1.4
				c1.2,5.7,3.9,8.4,8.4,8.4c3.6,0,6.8-2.2,8.8-6.3c1.3-2.5,2.7-9.1,3.1-14.3l0.2-3.1l-2.2,1.8c-2.4,1.9-6.6,4.3-8.9,5
				c-0.8,0.2-3,0.6-5,0.9c-8.6,1.1-17-1.6-23.2-7.5c-6.4-6.1-9.6-12.7-10.5-21.9c-1.1-11.9,2.3-22.3,9.8-29.7
				c4.1-4.1,9.1-6.7,15.6-8.3c1.3-0.3,3.5-0.5,6.2-0.6c-9.5,0.8-17.2,4.2-22.6,9.9c-10.4,11.2-12.1,30.1-4,43.6
				c1.5,2.6,6.2,7.5,8.8,9.3c2.8,1.9,5.8,3.3,9.2,4.2c3.7,1,10.4,1.1,14,0.2c3.4-0.8,7.6-3,10.4-5.3c1.3-1.1,2.5-1.9,2.6-1.8
				c0.1,0.1,0,2.3-0.4,4.9c-1.1,9-2.5,13.2-5.4,16.1c-1.9,1.9-3.3,2.6-5.7,2.9c-2.8,0.3-4.7-0.4-6.5-2.2c-1.2-1.2-1.7-2.1-2.5-4.6
				c-0.4-1.2-0.8-2.2-1.1-2.8c0,0,0,0,0,0l0,0h0c-0.1-0.2-0.2-0.4-0.3-0.4c-0.2-0.1-2.3,0.1-4.6,0.4c-10.4,1.3-20.3,2.7-20.9,2.9
				c-0.5,0.2-0.6,0.4-0.5,1.4c0.6,3.5,4.2,10.2,7.4,13.7c4.6,5.1,10.4,7.9,18,9.1c4.4,0.6,13.5,0.6,17.5,0
				C262,458,271.2,451.3,276.6,440.8z"/>
			<path class="st0" d="M280.3,389.3c3.7,17.6,2,39.1-4,51.3c-1.9,3.8-3.2,5.7-5.8,8.5c-5,5.4-11.8,9-19.6,10.5
				c-5.6,1-14.2,1-20.3-0.1c-9.4-1.7-16.7-7.2-21-15.8c-1.5-3-2.8-6.8-2.5-7.3c0.1-0.2,1.4-0.6,2.9-0.8c1.4-0.2,4.4-0.6,6.6-0.9
				c2.2-0.3,5.9-0.8,8.2-1.1c2.3-0.3,5.1-0.6,6.3-0.6l1.4,0c-2.2,0.1-23.7,2.8-24.8,3.2c-0.9,0.3-0.7,1.2,1.1,5.3
				c1.9,4.5,3.9,7.3,7.3,10.5c4.6,4.3,10.3,6.8,17.6,7.7c3.8,0.4,11.4,0.5,14.6,0c6.2-0.8,12.6-3.2,17-6.4c2.5-1.8,6.6-6,8.2-8.4
				c1.8-2.6,4.4-8.5,5.5-12c4.1-14.1,3.9-35.6-0.3-48.6c-2.5-7.8-7.2-14.7-12.8-18.9c-4.6-3.5-10.2-5.5-17.9-6.4
				c-1.2-0.1-2.3-0.3-3.3-0.3c2.9,0.1,5.6,0.3,7,0.6c8.3,1.8,12.9,4.1,17.5,8.8C274.4,373.3,278.7,381.7,280.3,389.3z"/>
			<path class="st0" d="M278.8,384.5c4.3,13,4.4,34.5,0.3,48.6c-1,3.5-3.7,9.4-5.5,12c-1.7,2.4-5.7,6.6-8.2,8.4
				c-4.4,3.2-10.8,5.6-17,6.4c-3.2,0.4-10.8,0.4-14.6,0c-7.3-0.8-13-3.3-17.6-7.7c-3.4-3.2-5.3-6-7.3-10.5c-1.8-4.1-2-5.1-1.1-5.3
				c1.2-0.4,22.7-3.1,24.8-3.2h0h0.1h0c0,0,0,0,0,0c0.2,0.1,0.6,1.1,0.9,2.2c1.5,5.3,4.4,7.8,8.8,7.8c5.2,0,9.2-4.1,11-11.4
				c0.9-3.7,1.8-9.9,1.7-12.2c0-0.4,0.1-0.8,0.1-1.1c0-0.1,0-0.2-0.1-0.2l0-0.7l-2.7,2.2c-5.3,4.3-10.5,6.2-17.4,6.2
				c-8.7,0-16.3-3.5-21.9-10.2c-5.2-6.3-7.8-13.6-7.8-22.5c0-9.8,3.1-18.1,9-24.5c5.4-5.8,11.8-8.7,21.5-9.7c0.5-0.1,1-0.1,1.5-0.1
				c0,0,0,0,0,0c2.4-0.1,5.2-0.1,7.7,0c0,0,0,0,0,0c1,0.1,2,0.2,3.3,0.3c7.7,0.9,13.3,2.9,17.9,6.4
				C271.6,369.8,276.2,376.7,278.8,384.5z M275.9,440.6c4-8,5.9-18.2,5.9-31.7c0-18.8-3.9-31.1-12.5-40c-4.8-5-9.8-7.5-17.8-9.1
				c-4.6-0.9-16.4-0.9-20.6,0c-10.9,2.4-17.8,7.8-22.4,17.5c-3.6,7.5-4.3,17.9-1.9,26.3c3.1,10.6,10.6,18.4,20.6,21.2
				c2.3,0.6,3.7,0.8,7.5,0.8c2.8,0,5.5-0.2,6.7-0.5c3.2-0.8,8-3.3,11-5.8c1.5-1.3,2.8-2.2,2.9-2.1c0.3,0.3-0.6,8.2-1.5,12.6
				c-1.3,6.7-3.6,10.5-7.3,12.4c-2.4,1.2-6,1.3-8.1,0.2c-2.5-1.3-4.2-3.8-5.1-7.3c-0.2-0.9-0.7-1.7-0.9-1.9c-0.3-0.1-2,0-3.7,0.2
				c-1.8,0.2-4.9,0.7-7,0.9c-10.7,1.4-13.9,1.9-14.1,2.1c-0.4,0.4,0.7,3.5,2.2,6.7c4.6,9.5,12,14.7,22.9,16.3
				c5.1,0.7,9.2,0.8,14,0.4C260.2,458.4,270.3,451.8,275.9,440.6z"/>
			<path class="st0" d="M277.1,517.2c-0.4,0.1-0.8,0.1-1.1,0.1c-0.2,0-0.5,0-0.7,0C275.8,517.2,276.4,517.2,277.1,517.2z"/>
			<path class="st0" d="M275.3,517.2c-0.8,0-1.5-0.1-1.9-0.3c-1.4-0.6-3.4-2.9-5.3-6.1c-6.1-10.2-11-14.8-18-16.5
				c-0.6-0.2-1.3-0.3-1.9-0.4c3.7,0.3,6,1.2,9.2,3.5c3.8,2.7,6.9,6.5,11.1,13.7C270.8,515,272.9,516.9,275.3,517.2z"/>
			<path class="st0" d="M255.1,418.4c0,0.3,0,0.7-0.1,1.1c0-0.1,0-0.2,0-0.3l-0.1-1C255.1,418.2,255.1,418.3,255.1,418.4z"/>
			<path class="st0" d="M255.1,419.5c0,2.3-0.8,8.5-1.7,12.2c-1.8,7.3-5.7,11.4-11,11.4c-4.4,0-7.2-2.5-8.8-7.8
				c-0.3-1.1-0.7-2.1-0.9-2.2c0,0,0,0,0,0l0.5,0c0,0,0,0,0,0c0,0,0,0,0,0l0.4,1.7c0.8,3.1,2.3,5.5,4.1,6.7c5.5,3.7,12.7,0,14.9-7.9
				C253.5,430.5,254.8,423.1,255.1,419.5z"/>
			<path class="st0" d="M254.9,417.5l0,0.7c-0.3-0.1-1,0.2-1.5,0.7c-2,2.3-7.6,5.4-11.4,6.5c-3.3,0.9-11.2,0.9-14.5,0
				c-5.6-1.5-9.5-3.9-13.8-8.5c-6.2-6.5-8.8-13.6-8.8-23.9c0-6,0.6-9.2,2.5-14.3c2.2-5.7,7.5-12.1,12.4-15.1
				c2.5-1.5,7.3-3.3,10.9-4.1c1.3-0.3,3.6-0.5,6.3-0.6c-0.5,0-1,0.1-1.5,0.1c-9.7,1.1-16.1,3.9-21.5,9.7c-6,6.4-9.1,14.7-9,24.5
				c0,8.8,2.6,16.2,7.8,22.5c5.6,6.7,13.2,10.2,21.9,10.2c6.9,0,12.1-1.9,17.4-6.2L254.9,417.5z"/>
			<path class="st0" d="M254.1,387.2c1.7,6.8,0,15-4,18.6c-2.8,2.5-7.2,3.7-10.5,2.9c-4.7-1.2-8.3-5.5-9.4-11.3
				c-0.5-2.5-0.4-8.5,0.2-11.1c1.3-6.2,5.6-10.2,11-10.2c3.4,0,5.6,0.9,8.1,3.1C251.9,381.4,253.1,383.6,254.1,387.2z M253.9,398.7
				c0.7-2.7,0.7-8.7,0-11.6c-1.5-6.3-5.9-10.4-11.4-10.9c-7.1-0.5-11.8,4.7-12.4,14c-0.6,9,2.6,15.8,8.5,18c2.1,0.8,6.5,0.5,8.7-0.7
				C250.5,405.9,252.8,402.8,253.9,398.7z"/>
			<path class="st0" d="M254.1,393c0,7-2.7,12.4-7.3,14.4c-1.9,0.8-5.9,1.1-7.7,0.6c-4.2-1.3-7.3-5.4-8.3-11.1
				c-0.6-3.5-0.6-5.6,0-9.3c0.9-4.9,2.8-8,6.2-9.8c1.6-0.9,2.2-1,4.7-1c2.4,0,3.1,0.1,4.8,1C251.4,380.1,254,385.5,254.1,393z
				 M253.4,397.9c0.8-3.3,0.9-6.1,0.1-9.5c-1.1-5.3-3.5-8.7-7.3-10.6c-5.6-2.7-11.9,0-14.2,6c-1.7,4.4-1.7,12.5,0,16.9
				c1,2.5,3.4,5.2,5.7,6.4c1.5,0.7,2.3,0.9,4.5,0.9c2.3,0,3-0.2,4.8-1.1C250.4,405.3,252.2,402.7,253.4,397.9z"/>
			<path class="st0" d="M253.9,387.1c0.7,2.9,0.7,8.9,0,11.6c-1.1,4.1-3.4,7.3-6.6,8.9c-2.2,1.1-6.6,1.4-8.7,0.7
				c-5.9-2.2-9.1-9-8.5-18c0.6-9.3,5.3-14.6,12.4-14C248,376.6,252.4,380.8,253.9,387.1z M253.7,398.4c1.2-4.8,0.7-11.2-1.3-15.1
				c-1.2-2.3-3.5-4.6-5.8-5.7c-1.9-0.9-2.6-1.1-4.8-1.1c-5.9,0-10,3.9-11.2,10.7c-0.6,3.6-0.3,10.3,0.7,13c1.7,4.6,4.6,7.4,8.5,8.2
				c3.5,0.7,7.4-0.4,10-2.9C251.9,403.4,252.9,401.6,253.7,398.4z"/>
			<path class="st0" d="M252.4,383.3c2,3.9,2.6,10.3,1.3,15.1c-0.8,3.2-1.8,5.1-3.9,7.1c-2.6,2.5-6.5,3.6-10,2.9
				c-3.9-0.8-6.8-3.6-8.5-8.2c-1-2.7-1.4-9.3-0.7-13c1.2-6.8,5.2-10.7,11.2-10.7c2.2,0,2.9,0.2,4.8,1.1
				C248.9,378.7,251.2,380.9,252.4,383.3z M246.8,407.4c4.6-2,7.3-7.4,7.3-14.4c0-7.5-2.7-12.9-7.6-15.3c-1.7-0.8-2.4-1-4.8-1
				c-2.4,0-3,0.1-4.7,1c-3.4,1.9-5.3,4.9-6.2,9.8c-0.6,3.7-0.7,5.8,0,9.3c1,5.7,4.1,9.8,8.3,11.1
				C240.9,408.5,244.9,408.2,246.8,407.4z"/>
			<path class="st0" d="M253.5,388.4c0.7,3.5,0.7,6.3-0.1,9.5c-1.2,4.8-3,7.3-6.4,9c-1.8,0.9-2.5,1.1-4.8,1.1c-2.2,0-3-0.2-4.5-0.9
				c-2.3-1.2-4.7-3.8-5.7-6.4c-1.7-4.4-1.7-12.5,0-16.9c2.3-6,8.6-8.6,14.2-6C250,379.7,252.4,383.1,253.5,388.4z M249.5,404.9
				c3.7-3.7,5.1-10.8,3.6-17.6c-0.9-3.9-3.8-7.7-6.9-9.2c-2.5-1.2-6.5-1.3-8.6-0.2c-3.4,1.7-5.6,5.1-6.3,9.5
				c-0.7,4.5-0.7,5.1-0.1,8.4c1,5.7,2.7,8.7,6.3,10.7c1.6,0.9,2.1,1,4.6,1C245.5,407.7,247.4,407,249.5,404.9z"/>
			<path class="st0" d="M253.1,383.2c2.6,5.6,2.6,14,0,19.1c-1.1,2.3-4.1,5.1-6.3,6.1c-2,0.9-5.8,1.1-7.9,0.6
				c-4.3-1.2-7.7-5.2-8.9-10.5c-0.6-2.5-0.7-9.1-0.2-11.8c0.9-4.5,3.4-8.1,6.9-9.9c2-1,2.7-1.1,5-1.1c2.1,0,3.1,0.2,4.7,1
				C249,377.8,251.9,380.7,253.1,383.2z M250.1,405.8c4-3.6,5.7-11.8,4-18.6c-0.9-3.6-2.2-5.8-4.6-8.1c-2.4-2.2-4.7-3.1-8.1-3.1
				c-5.4,0-9.7,4.1-11,10.2c-0.6,2.7-0.7,8.6-0.2,11.1c1.1,5.9,4.7,10.1,9.4,11.3C242.9,409.5,247.4,408.3,250.1,405.8z"/>
			<path class="st0" d="M253.1,387.3c1.5,6.8,0.1,13.9-3.6,17.6c-2,2.1-4,2.8-7.4,2.8c-2.5,0-3.1-0.1-4.6-1c-3.6-2-5.3-5-6.3-10.7
				c-0.6-3.4-0.6-4,0.1-8.4c0.7-4.5,2.9-7.8,6.3-9.5c2.1-1.1,6.1-1,8.6,0.2C249.3,379.6,252.2,383.4,253.1,387.3z"/>
			<path class="st0" d="M248.1,494c-0.4,0-0.8-0.1-1.2-0.1c-0.8,0-1.5,0-2.3,0C245.8,493.8,247,493.8,248.1,494z"/>
			<path class="st0" d="M243.4,358.4c0.2,0,0.5,0,0.7,0c-2.6-0.1-5.4,0-7.8,0.1C238.5,358.3,240.9,358.3,243.4,358.4z"/>
			<path class="st0" d="M244.7,358.8c-2.5-0.1-5.2-0.1-7.7,0C239.8,358.6,241.9,358.6,244.7,358.8z"/>
			<path class="st0" d="M241.3,328.8c-0.7,0-1.5,0-2.2,0l0.7,0C240.3,328.8,240.8,328.8,241.3,328.8z"/>
			<path class="st0" d="M239,328.8l-4.1-0.1l-3-1.5c-4-1.9-6.4-4.4-10.3-10.3c-1.7-2.6-3.5-5.3-4-6.1c-1.7-2.6-3.9-4.6-5.7-5.1
				c-2.4-0.7-4.6,0-12.1,3.8c-9.5,4.8-10.9,6.1-10.9,10.4c0,1.9,0.3,3.5,1.3,6.5c1.3,4.1,1.5,5.1,2.2,8.3c0.7,3.3,0.4,6.6-1.1,11.3
				c-2.2,7.3-7.5,12.6-14.9,15.3c-1.2,0.4-2.8,0.6-5.7,0.6c-3.8,0-4.3-0.1-8.9-1.5c-5.7-1.8-9.3-2.1-11.3-0.9c-1.8,1-3.4,4-6.2,11.1
				c-2.8,7.1-3.5,10-3,12.9c0.4,2.7,1.4,3.6,7.4,7c9.5,5.4,13.1,9.4,15.4,17c0.7,2.2,0.8,3.1,0.6,7c-0.2,4.6-0.5,5.8-2.2,9.3
				c-2.5,5-6.4,9-12.5,13c-2.1,1.4-4.4,3-4.9,3.5c-1.4,1.4-2.3,3.5-2.3,5.5c0,0,0,0,0,0h0v0c0-4,0.8-5.1,6.6-8.9
				c5.2-3.4,8.3-6.1,10.4-9.2c3.7-5.3,4.7-8.3,4.7-14.1c0,0,0-0.1,0-0.1c0-4.5-0.6-7-2.4-10.4c-2.7-5.1-5.8-8-12.9-12
				c-7.4-4.2-8.2-5.1-8.2-9.5c0-3,0.6-5.1,3.8-13c3.5-8.7,4.9-10.2,9.7-10.1c1.9,0,3.4,0.3,7,1.5c3.6,1.2,4.5,1.4,7.1,1.5
				c1.6,0.2,3,0.2,4.5,0c2-0.1,2.8-0.3,4.3-0.8c7.2-2.8,13-9.7,14.4-17.3c1-5.1,0.7-8.8-1.1-14.5c-2.1-6.7-2.6-10.3-1.5-12.2
				c1-2,3.7-3.8,10.6-7.3c7.8-3.9,10-4.6,12.4-3.7c2.9,1,4,2.3,9.4,10.6c4.8,7.4,8.5,10.6,14,12C236.7,328.5,237.9,328.7,239,328.8z
				"/>
			<path class="st0" d="M233.2,433.1L233.2,433.1C233.2,433.1,233.2,433.1,233.2,433.1L233.2,433.1z"/>
			<path class="st0" d="M232.7,433.1h-0.1C232.6,433.1,232.7,433.1,232.7,433.1z"/>
			<path class="st0" d="M244.5,493.9c-4.5,0.3-9.2,2.3-12.8,5.7c-3,2.8-5.7,6.5-9.4,13.1c-3.7,6.4-4,6.8-6.9,6.7c0,0,0,0-0.1,0
				c1,0,1.9-0.2,2.5-0.6c0.8-0.5,1.9-2,3.6-5.2C229.7,499.2,235.4,494.2,244.5,493.9z"/>
			<path class="st0" d="M215.4,519.3c-0.4,0-0.8,0-1.3-0.1C214.5,519.3,214.9,519.3,215.4,519.3z"/>
			<path class="st0" d="M214.1,519.3c-0.7,0-1.4-0.1-1.7-0.1c-8.3-1.4-15.5-4.8-17.9-8.4c-2.1-3.1-2.1-5.4-0.1-13.5
				c1.6-6.3,1.9-10.4,1.1-14.1c-2-9.1-9.4-16.7-17.3-17.9c-3.5-0.5-7.4,0-13.2,1.9c-5.1,1.6-9.3,2.1-11.5,1.4
				c-1.8-0.6-3.8-3-5.1-6.2c-0.6-1.5-2.1-4.7-3.2-7.1c-2.4-5.2-2.8-6.5-2.8-9.4c0-3.8,1.5-5.7,7.5-9.6c9.5-6.1,14.5-13.9,14.5-22.6
				c0,5.8-1,8.8-4.7,14.1c-2.1,3-5.2,5.8-10.4,9.2c-5.8,3.8-6.6,4.9-6.6,8.9v0c0,3.1,0.4,4.6,2.8,9.6c0.9,1.9,2.1,4.6,2.7,6
				c2.5,6,4.1,7.4,8.6,7.3c1.6,0,3.6-0.3,5.1-0.8c7.3-2.2,10-2.9,12.3-3.1c10.7-0.9,21,9.5,22,20.9c0,0.5,0,1.2,0,1.9
				c0,0.8,0,1.5,0,2.1c0,0,0,0,0,0c0,0.4-0.1,0.7-0.1,1.1c-0.2,1.5-0.9,4.5-1.5,6.6c-0.8,3-1.2,5.3-1.3,7.2c0,0,0,0,0,0
				c-0.1,0.7-0.1,1.1,0,1.6c0.1,1.9,0.7,3.3,1.7,4.6c2.7,3.5,7.6,5.7,18.3,8.1C213.5,519.2,213.8,519.2,214.1,519.3z"/>
			<path class="st0" d="M196.1,485.8c0.1,1.3,0.1,2.7,0,4c0-0.6,0-1.3,0-2.1C196.1,486.9,196.1,486.3,196.1,485.8z"/>
			<path class="st0" d="M196,490.9c0.1-0.4,0.1-0.7,0.1-1.1c-0.1,2.7-0.3,4-1.1,7.3c-1.1,4.3-1.6,6.3-1.8,7.6
				c0.1-1.9,0.5-4.2,1.3-7.2C195.1,495.4,195.7,492.4,196,490.9z"/>
			<path class="st0" d="M194.9,479.8c1,2.4,1.1,3,1.2,6c-1.1-11.4-11.3-21.8-22-20.9c-2.2,0.2-4.9,0.9-12.3,3.1
				c-1.5,0.5-3.5,0.8-5.1,0.8c-4.5,0-6.1-1.3-8.6-7.3c-0.6-1.3-1.8-4-2.7-6c-2.4-5-2.8-6.5-2.8-9.6h0c0,1.9,1.3,6.1,2.9,9.3
				c0.7,1.3,1.6,3.4,2.1,4.6c1.7,4.2,2.3,5.3,3.6,6.7c2.3,2.6,5.7,2.7,12.7,0.5c2.2-0.7,5.6-1.6,7.5-2c3.4-0.7,3.6-0.7,6.7-0.1
				C185.7,466.3,191.7,471.7,194.9,479.8z"/>
			<path class="st0" d="M195.4,485.4c0.1,1.3,0.1,2.6,0,4c0-0.5,0-1.1,0-1.7C195.4,486.8,195.4,486,195.4,485.4z"/>
			<path class="st0" d="M193.2,504.8c0,0.6,0,1.1,0,1.6C193.2,505.9,193.1,505.4,193.2,504.8z"/>
			<path class="st0" d="M170.6,361.6c1,0,1.8,0,2.5,0c-1.5,0.2-2.9,0.2-4.5,0C169.1,361.6,169.8,361.6,170.6,361.6z"/>
			<path class="st0" d="M168.5,361.6c-2.6-0.1-3.4-0.3-7.1-1.5c-3.6-1.2-5.1-1.5-7-1.5c-4.8,0-6.2,1.4-9.7,10.1
				c-3.2,8-3.8,10.1-3.8,13c0,4.4,0.8,5.4,8.2,9.5c7.1,4,10.2,6.9,12.9,12c1.8,3.4,2.4,5.9,2.4,10.4c0-3.6-0.7-6.3-2.5-10
				c-2.5-5.3-5.3-7.9-13.2-12.4c-5.4-3.1-6.6-4-7.4-5.8c-1.4-2.9-0.9-6.3,2.4-14.5c3.7-9.3,5-11.4,7.7-12.3c2-0.7,6.1-0.2,10.4,1.2
				C164.5,360.7,166.7,361.3,168.5,361.6z"/>
		</g>
		<g>
		</g>
	</g>
</g>
</svg>
